<?xml version="1.0" encoding="utf-8"?>
<!-- Generator: Adobe Illustrator 25.0.1, SVG Export Plug-In . SVG Version: 6.00 Build 0)  -->
<svg version="1.1" id="Layer_1" xmlns="http://www.w3.org/2000/svg" xmlns:xlink="http://www.w3.org/1999/xlink" x="0px" y="0px"
	 viewBox="0 0 80.9 104.6" style="enable-background:new 0 0 80.9 104.6;" xml:space="preserve">
<style type="text/css">
	.st0{fill:url(#SVGID_1_);}
	.st1{fill:url(#SVGID_2_);}
</style>
<g>
	<linearGradient id="SVGID_1_" gradientUnits="userSpaceOnUse" x1="78.691" y1="50.7928" x2="45.0853" y2="50.7928">
		<stop  offset="0" style="stop-color:#00B2E3"/>
		<stop  offset="1" style="stop-color:#0055B8"/>
	</linearGradient>
	<path class="st0" d="M44.1,46.5l-2.6,3.4l4,5.2c0.6-1,1-2.2,1-3.5C46.5,49.6,45.6,47.8,44.1,46.5z M51.1,37.6l-3.2,4.2
		c3.1,2.4,4.9,6,4.9,9.9c0,3.2-1.2,6.2-3.4,8.5l3.3,4.2c3.5-3.3,5.4-7.9,5.4-12.8C58,46.1,55.5,41,51.1,37.6z M64.3,19.4l-3.2,4.2
		c8.8,6.8,13.8,17,13.8,28.1c0,10.2-4.3,19.7-11.8,26.4l3.2,4.2c8.8-7.7,13.8-18.7,13.8-30.6C80.2,38.9,74.4,27.1,64.3,19.4z
		 M57.7,28.5l-3.2,4.2c5.9,4.6,9.3,11.5,9.3,19c0,6.7-2.7,13-7.6,17.5l3.2,4.2c6.1-5.5,9.6-13.3,9.6-21.7
		C69.1,42.5,64.9,34.1,57.7,28.5z"/>
	<linearGradient id="SVGID_2_" gradientUnits="userSpaceOnUse" x1="0.7175" y1="52.3" x2="66.507" y2="52.3">
		<stop  offset="0" style="stop-color:#00B2E3"/>
		<stop  offset="1" style="stop-color:#0055B8"/>
	</linearGradient>
	<path class="st1" d="M17.3,26.6l45.2,58.7l4-3.2L18.3,19.3C7.7,26.5,0.7,38.6,0.7,52.3c0,13.7,6.9,25.8,17.5,33l11.8,0
		c-14-4.5-24.1-17.6-24.1-33C5.9,42.1,10.3,32.9,17.3,26.6z"/>
</g>
</svg>
