<?xml version="1.0" encoding="utf-8"?>
<!-- Generator: Adobe Illustrator 25.0.1, SVG Export Plug-In . SVG Version: 6.00 Build 0)  -->
<svg version="1.1" id="Layer_1" xmlns="http://www.w3.org/2000/svg" xmlns:xlink="http://www.w3.org/1999/xlink" x="0px" y="0px"
	 viewBox="0 0 327.9 104.6" style="enable-background:new 0 0 327.9 104.6;" xml:space="preserve">
<style type="text/css">
	.st0{fill:#FFFFFF;}
</style>
<g>
	<path class="st0" d="M178.1,95.7c-2.2,0-3.3,1.6-3.3,3.8c0,2.3,1.1,3.8,3.3,3.8c2.2,0,3.4-1.6,3.4-3.8
		C181.5,97.2,180.4,95.7,178.1,95.7z"/>
	<path class="st0" d="M187.5,13.2v9.5c0,0.1,0.1,0.1,0.1,0.2v-9.6C187.6,13.3,187.6,13.2,187.5,13.2z"/>
	<path class="st0" d="M187.7,56.3v-9.6c0,0.1-0.1,0.1-0.1,0.2v9.5C187.6,56.4,187.6,56.4,187.7,56.3z"/>
	<path class="st0" d="M187.2,12.8V22c0.1,0.2,0.3,0.5,0.4,0.7v-9.5C187.4,13.1,187.3,12.9,187.2,12.8z"/>
	<path class="st0" d="M187.5,56.5V47c-0.1,0.2-0.3,0.5-0.4,0.7v9.2C187.3,56.7,187.4,56.6,187.5,56.5z"/>
	<path class="st0" d="M186.8,12.4v8.9c0.1,0.2,0.3,0.4,0.4,0.6v-9.2C187,12.7,186.9,12.5,186.8,12.4z"/>
	<path class="st0" d="M187.2,56.9v-9.2c-0.1,0.2-0.3,0.4-0.4,0.6v8.9C186.9,57.1,187,57,187.2,56.9z"/>
	<path class="st0" d="M186.8,57.2v-8.9c-0.1,0.2-0.3,0.4-0.4,0.6v8.7C186.5,57.5,186.6,57.4,186.8,57.2z"/>
	<path class="st0" d="M186.4,12.1v8.7c0.1,0.2,0.3,0.4,0.4,0.6v-8.9C186.6,12.3,186.5,12.2,186.4,12.1z"/>
	<path class="st0" d="M186.1,57.9c0.1-0.1,0.2-0.2,0.3-0.3v-8.7c-0.1,0.2-0.3,0.4-0.4,0.6v8.2L186.1,57.9z"/>
	<path class="st0" d="M186,11.7v8.5c0.1,0.2,0.3,0.4,0.4,0.6v-8.7C186.3,11.9,186.1,11.8,186,11.7z"/>
	<path class="st0" d="M185.6,11.4v8.3c0.1,0.2,0.3,0.4,0.4,0.5v-8.5C185.9,11.6,185.7,11.5,185.6,11.4z"/>
	<path class="st0" d="M185.9,57.6l0.1,0.1v-8.2c-0.1,0.2-0.3,0.4-0.4,0.5v7.2L185.9,57.6z"/>
	<path class="st0" d="M185.6,57.2V50c-0.1,0.2-0.3,0.3-0.4,0.5v6.2L185.6,57.2z"/>
	<path class="st0" d="M185.2,11v8.1c0.1,0.2,0.3,0.3,0.4,0.5v-8.3C185.5,11.2,185.4,11.1,185.2,11z"/>
	<path class="st0" d="M184.8,10.7v7.9c0.1,0.2,0.3,0.3,0.4,0.5V11C185.1,10.9,185,10.8,184.8,10.7z"/>
	<path class="st0" d="M185.1,56.6l0.1,0.1v-6.2c-0.1,0.2-0.3,0.3-0.4,0.5v5.2L185.1,56.6z"/>
	<path class="st0" d="M184.8,56.2V51c-0.1,0.2-0.3,0.3-0.4,0.5v4.2L184.8,56.2z"/>
	<path class="st0" d="M184.4,10.4v7.8c0.1,0.1,0.3,0.3,0.4,0.4v-7.9C184.7,10.6,184.6,10.5,184.4,10.4z"/>
	<path class="st0" d="M184.1,10.1v7.7c0.1,0.1,0.3,0.3,0.4,0.4v-7.8C184.3,10.3,184.2,10.2,184.1,10.1z"/>
	<path class="st0" d="M184.4,55.6l0.1,0.1v-4.2c-0.1,0.1-0.3,0.3-0.4,0.4v3.3L184.4,55.6z"/>
	<path class="st0" d="M184,10l-0.4,0.5v6.8c0.1,0.1,0.3,0.3,0.4,0.4L184,10C184.1,10.1,184,10.1,184,10z"/>
	<path class="st0" d="M184.1,55.2v-3.3c-0.1,0.1-0.3,0.3-0.4,0.4v2.4L184.1,55.2z"/>
	<path class="st0" d="M183.6,54.6L183.6,54.6l0.1-2.3c-0.1,0.1-0.3,0.3-0.4,0.4v1.4L183.6,54.6z"/>
	<path class="st0" d="M183.3,11v5.9c0.1,0.1,0.3,0.3,0.4,0.4v-6.8L183.3,11z"/>
	<path class="st0" d="M182.9,11.5v5c0.1,0.1,0.3,0.3,0.4,0.4V11L182.9,11.5z"/>
	<path class="st0" d="M183.3,54.2v-1.4c-0.1,0.1-0.3,0.3-0.4,0.4v0.6L183.3,54.2z"/>
	<path class="st0" d="M182.9,53.7v-0.6c-0.1,0.1-0.2,0.2-0.2,0.2L182.9,53.7L182.9,53.7z"/>
	<path class="st0" d="M182.5,12v4.1c0.1,0.1,0.3,0.2,0.4,0.4v-5L182.5,12z"/>
	<path class="st0" d="M182.1,12.5v3.3c0.1,0.1,0.3,0.2,0.4,0.4V12L182.1,12.5z"/>
	<path class="st0" d="M181.7,13v2.4c0.1,0.1,0.3,0.2,0.4,0.4v-3.3L181.7,13z"/>
	<path class="st0" d="M181.4,13.5v1.6c0.1,0.1,0.3,0.2,0.4,0.3V13L181.4,13.5z"/>
	<path class="st0" d="M181,14v0.8c0.1,0.1,0.3,0.2,0.4,0.3v-1.6L181,14z"/>
	<path class="st0" d="M180.6,14.5c0.1,0.1,0.3,0.2,0.4,0.3V14L180.6,14.5z"/>
	<path class="st0" d="M206.5,46.6c1-3.8,1.6-7.7,1.6-11.7c0-4-0.6-8-1.6-11.7V46.6z"/>
	<path class="st0" d="M206.1,21.8v26.1c0.1-0.4,0.3-0.9,0.4-1.3V23.1C206.4,22.7,206.2,22.2,206.1,21.8z"/>
	<path class="st0" d="M205.7,20.6v28.5c0.1-0.4,0.3-0.8,0.4-1.2V21.8C206,21.4,205.9,21,205.7,20.6z"/>
	<path class="st0" d="M205.3,19.5v30.6c0.1-0.4,0.3-0.7,0.4-1.1V20.6C205.6,20.3,205.5,19.9,205.3,19.5z"/>
	<path class="st0" d="M205,18.5v32.6c0.1-0.3,0.3-0.7,0.4-1V19.5C205.2,19.2,205.1,18.9,205,18.5z"/>
	<path class="st0" d="M204.6,17.6v34.5c0.1-0.3,0.3-0.6,0.4-0.9V18.5C204.8,18.2,204.7,17.9,204.6,17.6z"/>
	<path class="st0" d="M204.2,16.7V53c0.1-0.3,0.3-0.6,0.4-0.9V17.6C204.4,17.3,204.3,17,204.2,16.7z"/>
	<path class="st0" d="M203.8,15.9v37.9c0.1-0.3,0.3-0.5,0.4-0.8V16.7C204,16.5,203.9,16.2,203.8,15.9z"/>
	<path class="st0" d="M203.4,15.1v39.4c0.1-0.3,0.3-0.5,0.4-0.8V15.9C203.7,15.6,203.5,15.4,203.4,15.1z"/>
	<path class="st0" d="M203,14.4v40.9c0.1-0.2,0.3-0.5,0.4-0.7V15.1C203.3,14.9,203.1,14.6,203,14.4z"/>
	<path class="st0" d="M202.6,13.7V56c0.1-0.2,0.3-0.5,0.4-0.7V14.4C202.9,14.2,202.8,13.9,202.6,13.7z"/>
	<path class="st0" d="M202.2,13v17.9c0.1,1.3,0.2,2.6,0.2,4c0,1.4-0.1,2.7-0.2,4.1v17.8c0.1-0.2,0.3-0.5,0.4-0.7V13.7
		C202.5,13.4,202.4,13.2,202.2,13z"/>
	<path class="st0" d="M201.9,41.6v15.8c0.1-0.2,0.3-0.4,0.4-0.6V38.9C202.1,39.8,202,40.7,201.9,41.6z"/>
	<path class="st0" d="M201.9,12.4v15.7c0.2,0.9,0.3,1.8,0.4,2.8V13C202.1,12.8,202,12.6,201.9,12.4z"/>
	<path class="st0" d="M201.5,43.5V58c0.1-0.2,0.3-0.4,0.4-0.6V41.6C201.7,42.2,201.6,42.8,201.5,43.5z"/>
	<path class="st0" d="M201.5,11.7v14.5c0.1,0.6,0.3,1.3,0.4,1.9V12.4C201.7,12.1,201.6,11.9,201.5,11.7z"/>
	<path class="st0" d="M201.1,45v13.6c0.1-0.2,0.3-0.4,0.4-0.6V43.5C201.3,44,201.2,44.5,201.1,45z"/>
	<path class="st0" d="M201.1,11.1v13.6c0.1,0.5,0.3,1,0.4,1.5V11.7C201.3,11.5,201.2,11.3,201.1,11.1z"/>
	<path class="st0" d="M200.7,46.3v12.8c0.1-0.2,0.3-0.4,0.4-0.6V45C201,45.5,200.8,45.9,200.7,46.3z"/>
	<path class="st0" d="M200.7,10.5v12.9c0.1,0.4,0.3,0.9,0.4,1.3V11.1C201,10.9,200.8,10.7,200.7,10.5z"/>
	<path class="st0" d="M200.3,47.5v12.2c0.1-0.2,0.3-0.4,0.4-0.6V46.3C200.6,46.7,200.4,47.1,200.3,47.5z"/>
	<path class="st0" d="M200.3,10v12.2c0.1,0.4,0.3,0.8,0.4,1.2V10.5C200.6,10.3,200.4,10.2,200.3,10z"/>
	<path class="st0" d="M199.9,9.4v11.8c0.1,0.3,0.3,0.7,0.4,1V10C200.2,9.8,200.1,9.6,199.9,9.4z"/>
	<path class="st0" d="M199.9,48.6v11.7c0.1-0.2,0.3-0.4,0.4-0.6V47.5C200.2,47.8,200.1,48.2,199.9,48.6z"/>
	<path class="st0" d="M199.5,8.9v11.3c0.1,0.3,0.3,0.7,0.4,1V9.4C199.8,9.2,199.7,9.1,199.5,8.9z"/>
	<path class="st0" d="M199.5,49.5v11.3c0.1-0.2,0.3-0.4,0.4-0.5V48.6C199.8,48.9,199.7,49.2,199.5,49.5z"/>
	<path class="st0" d="M199.1,50.4v10.9c0.1-0.2,0.3-0.3,0.4-0.5V49.5C199.4,49.8,199.3,50.1,199.1,50.4z"/>
	<path class="st0" d="M199.1,8.4v10.9c0.1,0.3,0.3,0.6,0.4,0.9V8.9C199.4,8.7,199.3,8.6,199.1,8.4z"/>
	<path class="st0" d="M198.8,51.2v10.6c0.1-0.2,0.3-0.3,0.4-0.5V50.4C199,50.7,198.9,50.9,198.8,51.2z"/>
	<path class="st0" d="M198.8,7.9v10.6c0.1,0.3,0.3,0.6,0.4,0.8V8.4C199,8.2,198.9,8,198.8,7.9z"/>
	<path class="st0" d="M198.4,7.4v10.3c0.1,0.3,0.3,0.5,0.4,0.8V7.9C198.6,7.7,198.5,7.5,198.4,7.4z"/>
	<path class="st0" d="M198.4,52v10.3c0.1-0.2,0.3-0.3,0.4-0.5V51.2C198.6,51.5,198.5,51.8,198.4,52z"/>
	<path class="st0" d="M198,6.9v10c0.1,0.2,0.3,0.5,0.4,0.7V7.4C198.2,7.2,198.1,7.1,198,6.9z"/>
	<path class="st0" d="M198,52.7v10c0.1-0.2,0.3-0.3,0.4-0.5V52C198.3,52.3,198.1,52.5,198,52.7z"/>
	<path class="st0" d="M197.6,53.5v9.7c0.1-0.1,0.3-0.3,0.4-0.4v-10C197.9,53,197.7,53.2,197.6,53.5z"/>
	<path class="st0" d="M197.6,6.5v9.7c0.1,0.2,0.3,0.5,0.4,0.7v-10C197.9,6.8,197.7,6.6,197.6,6.5z"/>
	<path class="st0" d="M197.2,6v9.5c0.1,0.2,0.3,0.4,0.4,0.6V6.5C197.5,6.3,197.3,6.2,197.2,6z"/>
	<path class="st0" d="M197.2,54.1v9.5c0.1-0.1,0.3-0.3,0.4-0.4v-9.7C197.5,53.7,197.3,53.9,197.2,54.1z"/>
	<path class="st0" d="M196.8,54.8v9.3c0.1-0.1,0.3-0.3,0.4-0.4v-9.5C197.1,54.3,197,54.5,196.8,54.8z"/>
	<path class="st0" d="M196.8,5.6v9.3c0.1,0.2,0.3,0.4,0.4,0.6V6C197.1,5.9,197,5.7,196.8,5.6z"/>
	<path class="st0" d="M196.4,55.4v9.1c0.1-0.1,0.3-0.3,0.4-0.4v-9.3C196.7,55,196.6,55.2,196.4,55.4z"/>
	<path class="st0" d="M196.4,5.2v9.1c0.1,0.2,0.3,0.4,0.4,0.6V5.6C196.7,5.5,196.6,5.3,196.4,5.2z"/>
	<path class="st0" d="M196.1,4.8V10h0.2v4c0.1,0.1,0.1,0.2,0.2,0.3V5.2C196.3,5,196.2,4.9,196.1,4.8z"/>
	<path class="st0" d="M196.2,55.7V58h-0.2v6.9c0.1-0.1,0.3-0.3,0.4-0.4v-9.1C196.4,55.5,196.3,55.6,196.2,55.7z"/>
	<path class="st0" d="M196.1,10v3.7c0.1,0.1,0.1,0.2,0.2,0.3v-4H196.1z"/>
	<path class="st0" d="M196.2,34.8c0-1.1-0.1-2.2-0.2-3.3v6.7C196.2,37.1,196.2,36,196.2,34.8z"/>
	<path class="st0" d="M196.2,58v-2.3c-0.1,0.1-0.1,0.2-0.2,0.3V58H196.2z"/>
	<path class="st0" d="M195.7,58v7.3c0.1-0.1,0.3-0.3,0.4-0.4V58H195.7z"/>
	<path class="st0" d="M196.1,10V4.8c-0.1-0.1-0.3-0.3-0.4-0.4V10H196.1z"/>
	<path class="st0" d="M196.1,58V56c-0.1,0.2-0.3,0.4-0.4,0.6V58H196.1z"/>
	<path class="st0" d="M195.7,10v3.1c0.1,0.2,0.3,0.4,0.4,0.6V10H195.7z"/>
	<path class="st0" d="M196.1,38.2v-6.7c-0.1-0.9-0.2-1.7-0.4-2.6v11.9C195.8,39.9,196,39.1,196.1,38.2z"/>
	<path class="st0" d="M195.3,58v7.7c0.1-0.1,0.3-0.3,0.4-0.4V58H195.3z"/>
	<path class="st0" d="M195.7,10V4.4c-0.1-0.1-0.3-0.3-0.4-0.4V10H195.7z"/>
	<path class="st0" d="M195.3,10v2.6c0.1,0.2,0.3,0.4,0.4,0.6V10H195.3z"/>
	<path class="st0" d="M195.7,58v-1.5c-0.1,0.2-0.3,0.4-0.4,0.6v1H195.7z"/>
	<path class="st0" d="M195.7,40.8V28.9c-0.1-0.6-0.2-1.2-0.4-1.8v15.4C195.4,42,195.6,41.4,195.7,40.8z"/>
	<path class="st0" d="M195.3,10V4c-0.1-0.1-0.3-0.3-0.4-0.4V10H195.3z"/>
	<path class="st0" d="M194.9,58v8c0.1-0.1,0.3-0.3,0.4-0.4V58H194.9z"/>
	<path class="st0" d="M195.3,58v-1c-0.1,0.2-0.3,0.3-0.4,0.5V58H195.3z"/>
	<path class="st0" d="M194.9,10v2.1c0.1,0.2,0.3,0.3,0.4,0.5V10H194.9z"/>
	<path class="st0" d="M195.3,42.5V27.2c-0.1-0.5-0.2-0.9-0.4-1.4v18.2C195,43.5,195.2,43,195.3,42.5z"/>
	<path class="st0" d="M194.9,10V3.6c-0.1-0.1-0.3-0.2-0.4-0.4V10H194.9z"/>
	<path class="st0" d="M194.5,58C194.5,58.1,194.5,58.1,194.5,58l0,8.4c0.1-0.1,0.3-0.2,0.4-0.4v-8H194.5z"/>
	<path class="st0" d="M194.9,43.9V25.7c-0.1-0.4-0.3-0.8-0.4-1.2v20.6C194.6,44.7,194.8,44.3,194.9,43.9z"/>
	<path class="st0" d="M194.5,10v1.6c0.1,0.2,0.3,0.3,0.4,0.5V10H194.5z"/>
	<path class="st0" d="M194.9,57.6c-0.1,0.2-0.2,0.3-0.3,0.4h0.3V57.6z"/>
	<path class="st0" d="M194.5,10V3.2c-0.1-0.1-0.3-0.2-0.4-0.4V10H194.5z"/>
	<path class="st0" d="M194.1,58.6v8.2c0.1-0.1,0.3-0.2,0.4-0.4v-8.4C194.4,58.3,194.3,58.4,194.1,58.6z"/>
	<path class="st0" d="M194.1,10v1c0.1,0.2,0.3,0.3,0.4,0.5V10H194.1z"/>
	<path class="st0" d="M194.5,45.1V24.5c-0.1-0.3-0.3-0.7-0.4-1v22.7C194.3,45.8,194.4,45.5,194.5,45.1z"/>
	<path class="st0" d="M193.7,59.1v8.1c0.1-0.1,0.3-0.2,0.4-0.4v-8.2C194,58.8,193.9,58.9,193.7,59.1z"/>
	<path class="st0" d="M194.1,10V2.9c-0.1-0.1-0.3-0.2-0.4-0.4V10H194.1z"/>
	<path class="st0" d="M193.7,10v0.6c0.1,0.2,0.3,0.3,0.4,0.5v-1H193.7z"/>
	<path class="st0" d="M194.1,46.2V23.5c-0.1-0.3-0.2-0.7-0.4-1v24.6C193.9,46.8,194,46.5,194.1,46.2z"/>
	<path class="st0" d="M193.7,10V2.5c-0.1-0.1-0.3-0.2-0.4-0.4V10H193.7z"/>
	<path class="st0" d="M193.3,59.5v7.8l0.1,0.1c0.1-0.1,0.2-0.2,0.3-0.3v-8.1C193.6,59.2,193.5,59.4,193.3,59.5z"/>
	<path class="st0" d="M193.3,10v0.1c0.1,0.1,0.3,0.3,0.4,0.4V10H193.3z"/>
	<path class="st0" d="M193.7,47.1V22.5c-0.1-0.3-0.3-0.6-0.4-0.8V48C193.5,47.7,193.6,47.4,193.7,47.1z"/>
	<path class="st0" d="M193.3,67.3v-7.8c-0.1,0.1-0.3,0.3-0.4,0.4v6.8L193.3,67.3z"/>
	<path class="st0" d="M193.3,67.6C193.3,67.6,193.3,67.6,193.3,67.6L193.3,67.6L193.3,67.6z"/>
	<path class="st0" d="M193.3,2.2c-0.1-0.1-0.3-0.2-0.4-0.3v7.9c0.1,0.1,0.2,0.2,0.3,0.3h0.1V2.2z"/>
	<path class="st0" d="M193.2,10c0,0,0.1,0.1,0.1,0.1V10H193.2z"/>
	<path class="st0" d="M193.3,48V21.7c-0.1-0.3-0.3-0.6-0.4-0.8v27.9C193.1,48.5,193.2,48.3,193.3,48z"/>
	<path class="st0" d="M192.7,66.4l0.3,0.3V60c-0.1,0.1-0.3,0.3-0.4,0.4v5.9L192.7,66.4z"/>
	<path class="st0" d="M192.6,1.5v7.8c0.1,0.1,0.3,0.3,0.4,0.4V1.8C192.8,1.7,192.7,1.6,192.6,1.5z"/>
	<path class="st0" d="M193,48.8V20.9c-0.1-0.2-0.3-0.5-0.4-0.7v29.4C192.7,49.3,192.8,49.1,193,48.8z"/>
	<path class="st0" d="M192.6,66.3v-5.9c-0.1,0.1-0.3,0.3-0.4,0.4v5L192.6,66.3z"/>
	<path class="st0" d="M192.2,1.2v7.7c0.1,0.1,0.3,0.3,0.4,0.4V1.5C192.4,1.4,192.3,1.3,192.2,1.2z"/>
	<path class="st0" d="M192.6,49.5V20.1c-0.1-0.2-0.3-0.5-0.4-0.7v30.9C192.3,50,192.4,49.8,192.6,49.5z"/>
	<path class="st0" d="M191.9,65.5l0.2,0.3v-5c-0.1,0.1-0.3,0.3-0.4,0.4v4.1L191.9,65.5z"/>
	<path class="st0" d="M191.8,0.9v7.6c0.1,0.1,0.3,0.3,0.4,0.4V1.2C192.1,1.1,191.9,1,191.8,0.9z"/>
	<path class="st0" d="M192.2,50.3V19.4c-0.1-0.2-0.3-0.4-0.4-0.6v32.1C191.9,50.7,192.1,50.5,192.2,50.3z"/>
	<path class="st0" d="M191.8,65.3v-4.1c-0.1,0.1-0.3,0.3-0.4,0.4v3.2L191.8,65.3z"/>
	<path class="st0" d="M191.4,0.6v7.5c0.1,0.1,0.3,0.3,0.4,0.4V0.9C191.7,0.8,191.5,0.7,191.4,0.6z"/>
	<path class="st0" d="M191.8,50.9V18.8c-0.1-0.2-0.3-0.4-0.4-0.6v33.4C191.5,51.3,191.7,51.1,191.8,50.9z"/>
	<path class="st0" d="M191.1,0.3L191.1,0.3L191,7.7c0.1,0.1,0.3,0.3,0.4,0.4V0.6C191.3,0.5,191.2,0.4,191.1,0.3z"/>
	<path class="st0" d="M191.2,64.5l0.2,0.3v-3.2c-0.1,0.1-0.3,0.3-0.4,0.4v2.3L191.2,64.5z"/>
	<path class="st0" d="M191.4,51.5V18.1c-0.1-0.2-0.3-0.4-0.4-0.6v34.6C191.2,51.9,191.3,51.7,191.4,51.5z"/>
	<path class="st0" d="M191,64.3V62c-0.1,0.1-0.3,0.2-0.4,0.4v1.4L191,64.3z"/>
	<path class="st0" d="M190.6,0.9v6.4c0.1,0.1,0.3,0.2,0.4,0.4V0.4L190.6,0.9z"/>
	<path class="st0" d="M191,52.1V17.5c-0.1-0.2-0.3-0.4-0.4-0.6v35.7C190.8,52.5,190.9,52.3,191,52.1z"/>
	<path class="st0" d="M190.4,63.5l0.2,0.3v-1.4c-0.1,0.1-0.3,0.2-0.4,0.4v0.5L190.4,63.5z"/>
	<path class="st0" d="M190.3,1.4V7c0.1,0.1,0.3,0.2,0.4,0.4V0.9L190.3,1.4z"/>
	<path class="st0" d="M190.6,52.7V17c-0.1-0.2-0.3-0.4-0.4-0.6v14.2c0.2,1.4,0.3,2.8,0.3,4.2c0,1.4-0.1,2.8-0.3,4.2v14.2
		C190.4,53.1,190.5,52.9,190.6,52.7z"/>
	<path class="st0" d="M189.9,1.9v4.7c0.1,0.1,0.3,0.2,0.4,0.4V1.4L189.9,1.9z"/>
	<path class="st0" d="M190.3,62.7c-0.1,0.1-0.2,0.2-0.2,0.2l0.2,0.3V62.7z"/>
	<path class="st0" d="M190.3,53.3V39.1c-0.1,0.6-0.2,1.3-0.4,1.9v12.8C190,53.6,190.1,53.4,190.3,53.3z"/>
	<path class="st0" d="M189.9,15.9v12.8c0.2,0.6,0.3,1.3,0.4,1.9V16.4C190.1,16.2,190,16.1,189.9,15.9z"/>
	<path class="st0" d="M189.5,2.4v3.9c0.1,0.1,0.3,0.2,0.4,0.4V1.9L189.5,2.4z"/>
	<path class="st0" d="M189.5,15.4v11.9c0.1,0.5,0.3,0.9,0.4,1.4V15.9C189.7,15.7,189.6,15.6,189.5,15.4z"/>
	<path class="st0" d="M189.9,53.8V40.9c-0.1,0.5-0.2,1-0.4,1.4v11.9C189.6,54.1,189.7,53.9,189.9,53.8z"/>
	<path class="st0" d="M189.1,2.9v3c0.1,0.1,0.3,0.2,0.4,0.3V2.4L189.1,2.9z"/>
	<path class="st0" d="M189.1,14.9v11.2c0.1,0.4,0.3,0.8,0.4,1.2V15.4C189.3,15.3,189.2,15.1,189.1,14.9z"/>
	<path class="st0" d="M189.5,54.3V42.4c-0.1,0.4-0.2,0.8-0.4,1.2v11.2C189.2,54.6,189.3,54.4,189.5,54.3z"/>
	<path class="st0" d="M188.7,3.4v2.2c0.1,0.1,0.3,0.2,0.4,0.3v-3L188.7,3.4z"/>
	<path class="st0" d="M188.7,14.5v10.7c0.1,0.3,0.3,0.7,0.4,1V14.9C189,14.8,188.8,14.6,188.7,14.5z"/>
	<path class="st0" d="M189.1,54.7V43.5c-0.1,0.3-0.3,0.7-0.4,1v10.7C188.8,55,189,54.9,189.1,54.7z"/>
	<path class="st0" d="M188.3,3.9v1.4c0.1,0.1,0.3,0.2,0.4,0.3V3.4L188.3,3.9z"/>
	<path class="st0" d="M188.3,14v10.2c0.1,0.3,0.3,0.6,0.4,0.9V14.5C188.6,14.3,188.4,14.2,188.3,14z"/>
	<path class="st0" d="M188.7,55.2V44.5c-0.1,0.3-0.3,0.6-0.4,0.9v10.2C188.4,55.5,188.6,55.3,188.7,55.2z"/>
	<path class="st0" d="M187.9,4.4V5c0.1,0.1,0.3,0.2,0.4,0.3V3.9L187.9,4.4z"/>
	<path class="st0" d="M187.9,13.6v9.8c0.1,0.3,0.3,0.6,0.4,0.8V14C188.2,13.9,188.1,13.7,187.9,13.6z"/>
	<path class="st0" d="M188.3,55.6V45.4c-0.1,0.3-0.3,0.6-0.4,0.8v9.8C188.1,55.9,188.2,55.8,188.3,55.6z"/>
	<path class="st0" d="M187.7,4.8c0.1,0.1,0.2,0.2,0.3,0.2V4.4L187.7,4.8z"/>
	<path class="st0" d="M187.9,56.1v-9.8c-0.1,0.2-0.2,0.4-0.3,0.5v9.6C187.7,56.3,187.8,56.2,187.9,56.1z"/>
	<path class="st0" d="M187.7,13.3v9.6c0.1,0.2,0.2,0.3,0.3,0.5v-9.8C187.8,13.5,187.7,13.4,187.7,13.3z"/>
	<path class="st0" d="M184.4,34.8c0-1.2-0.1-2.3-0.3-3.5v6.8C184.3,37.1,184.4,36,184.4,34.8z"/>
	<path class="st0" d="M184.1,38.2v-6.8c-0.1-0.6-0.2-1.1-0.4-1.7v10.2C183.8,39.4,184,38.8,184.1,38.2z"/>
	<path class="st0" d="M183.7,39.9V29.7c-0.1-0.4-0.2-0.8-0.4-1.2v12.7C183.4,40.7,183.6,40.3,183.7,39.9z"/>
	<path class="st0" d="M183.3,41.2V28.5c-0.1-0.3-0.2-0.7-0.4-1v14.7C183,41.9,183.2,41.5,183.3,41.2z"/>
	<path class="st0" d="M182.9,42.2V27.5c-0.1-0.3-0.3-0.6-0.4-0.9V43C182.6,42.7,182.8,42.5,182.9,42.2z"/>
	<path class="st0" d="M182.5,43V26.6c-0.1-0.3-0.3-0.5-0.4-0.8v18C182.3,43.6,182.4,43.3,182.5,43z"/>
	<path class="st0" d="M182.1,43.8v-18c-0.1-0.2-0.3-0.5-0.4-0.7v19.3C181.9,44.3,182,44,182.1,43.8z"/>
	<path class="st0" d="M181.7,44.5V25.2c-0.1-0.2-0.3-0.4-0.4-0.6v20.6C181.5,44.9,181.6,44.7,181.7,44.5z"/>
	<path class="st0" d="M181.4,45.1V24.5c-0.1-0.2-0.3-0.4-0.4-0.6v21.7C181.1,45.5,181.2,45.3,181.4,45.1z"/>
	<path class="st0" d="M180.6,46.2V23.5c0,0,0,0,0,0L180.6,46.2C180.6,46.2,180.6,46.2,180.6,46.2z"/>
	<path class="st0" d="M181,45.7V24c-0.1-0.2-0.2-0.3-0.4-0.5v22.7C180.7,46,180.8,45.9,181,45.7z"/>
	<path class="st0" d="M180.6,46.2V23.4c-0.1-0.2-0.3-0.3-0.4-0.5v23.8C180.3,46.5,180.5,46.4,180.6,46.2z"/>
	<path class="st0" d="M180.2,46.7V22.9c-0.1-0.2-0.3-0.3-0.4-0.5v24.7C179.9,47,180.1,46.9,180.2,46.7z"/>
	<path class="st0" d="M179.8,47.2V22.5c-0.1-0.1-0.3-0.3-0.4-0.4v25.6C179.5,47.5,179.7,47.3,179.8,47.2z"/>
	<path class="st0" d="M179.4,47.6V22c-0.1-0.1-0.3-0.3-0.4-0.4V48C179.2,47.9,179.3,47.7,179.4,47.6z"/>
	<path class="st0" d="M178.8,48.3c0.1-0.1,0.2-0.2,0.3-0.3V21.6c-0.1-0.1-0.3-0.3-0.4-0.4v12c0.1,0.5,0.1,1.1,0.1,1.6
		c0,0.5,0,1-0.1,1.5v11.8L178.8,48.3z"/>
	<path class="st0" d="M178.3,47.7l0.3,0.4V36.4c-0.1,0.7-0.2,1.4-0.4,2L178.3,47.7L178.3,47.7z"/>
	<path class="st0" d="M178.3,20.9v10.4c0.2,0.6,0.3,1.3,0.4,1.9v-12C178.5,21.1,178.4,21,178.3,20.9z"/>
	<path class="st0" d="M178.3,47.7v-9.3c-0.1,0.4-0.2,0.8-0.4,1.2v7.6L178.3,47.7z"/>
	<path class="st0" d="M177.9,20.5v9.6c0.2,0.4,0.3,0.8,0.4,1.2V20.9C178.1,20.8,178,20.6,177.9,20.5z"/>
	<path class="st0" d="M177.6,46.7l0.3,0.4v-7.6c-0.1,0.3-0.2,0.6-0.4,0.9L177.6,46.7L177.6,46.7z"/>
	<path class="st0" d="M177.5,20.2v9c0.1,0.3,0.3,0.6,0.4,0.9v-9.6C177.7,20.4,177.6,20.3,177.5,20.2z"/>
	<path class="st0" d="M177.1,19.9v8.6c0.1,0.2,0.3,0.5,0.4,0.7v-9C177.4,20.1,177.2,20,177.1,19.9z"/>
	<path class="st0" d="M177.5,46.7v-6.2c-0.1,0.3-0.2,0.5-0.4,0.8v4.9L177.5,46.7z"/>
	<path class="st0" d="M176.8,45.8l0.3,0.4v-4.9c-0.1,0.2-0.2,0.5-0.4,0.7v3.8L176.8,45.8z"/>
	<path class="st0" d="M177,19.8l-0.3,0.3v7.6c0.1,0.2,0.3,0.5,0.4,0.7v-8.6C177.1,19.9,177,19.8,177,19.8z"/>
	<path class="st0" d="M176.3,20.6v6.6c0.1,0.2,0.3,0.4,0.4,0.6v-7.6L176.3,20.6z"/>
	<path class="st0" d="M176.7,45.6v-3.8c-0.1,0.2-0.3,0.4-0.4,0.6v2.7L176.7,45.6z"/>
	<path class="st0" d="M176,44.8l0.3,0.4v-2.7c-0.1,0.2-0.2,0.4-0.4,0.5v1.6L176,44.8z"/>
	<path class="st0" d="M175.9,21.1v5.5c0.1,0.2,0.3,0.4,0.4,0.5v-6.6L175.9,21.1z"/>
	<path class="st0" d="M175.6,21.6v4.6c0.1,0.2,0.3,0.3,0.4,0.5v-5.5L175.6,21.6z"/>
	<path class="st0" d="M175.9,44.6V43c-0.1,0.2-0.3,0.3-0.4,0.5v0.7L175.9,44.6z"/>
	<path class="st0" d="M175.2,22.1v3.6c0.1,0.1,0.3,0.3,0.4,0.4v-4.6L175.2,22.1z"/>
	<path class="st0" d="M175.6,44.1v-0.7c-0.1,0.1-0.2,0.2-0.3,0.3l0,0L175.6,44.1z"/>
	<path class="st0" d="M174.8,22.6v2.7c0.1,0.1,0.3,0.3,0.4,0.4v-3.6L174.8,22.6z"/>
	<path class="st0" d="M174.4,23.1V25c0.1,0.1,0.3,0.2,0.4,0.4v-2.7L174.4,23.1z"/>
	<path class="st0" d="M174,23.6v1c0.1,0.1,0.3,0.2,0.4,0.3v-1.9L174,23.6z"/>
	<path class="st0" d="M173.6,24.1v0.2c0.1,0.1,0.3,0.2,0.4,0.3v-1L173.6,24.1z"/>
	<path class="st0" d="M173.5,24.3C173.6,24.3,173.6,24.3,173.5,24.3l0.1-0.1L173.5,24.3z"/>
	<path class="st0" d="M172,34.8c0-0.7-0.1-1.4-0.3-2.1v4.2C171.9,36.3,172,35.6,172,34.8z"/>
	<path class="st0" d="M171.7,36.9v-4.2c-0.1-0.3-0.2-0.7-0.4-1v6.2C171.4,37.6,171.6,37.3,171.7,36.9z"/>
	<path class="st0" d="M171.1,38.3c0.1-0.1,0.1-0.3,0.2-0.4v-6.2c-0.1-0.2-0.2-0.5-0.4-0.7v7.1L171.1,38.3z"/>
	<path class="st0" d="M170.7,37.9l0.2,0.2V31c-0.1-0.2-0.2-0.4-0.4-0.6v7.1L170.7,37.9z"/>
	<path class="st0" d="M167.7,33.9l0.8,1l0.8,1l0.8,1l0.5,0.7v-7.1c-0.3-0.4-0.6-0.8-1-1.1l-2.7,3.4l0.1,0.1L167.7,33.9z"/>
	<path class="st0" d="M123,35.6c0,2.7,0.3,5.4,0.8,8V27.5C123.3,30.1,123,32.8,123,35.6z"/>
	<path class="st0" d="M123.8,27.5v16.1c0.2,1.1,0.5,2.2,0.8,3.2V24.3C124.3,25.4,124,26.4,123.8,27.5z"/>
	<path class="st0" d="M124.5,24.3v22.5c0.2,0.8,0.5,1.7,0.8,2.5V21.8C125,22.7,124.8,23.5,124.5,24.3z"/>
	<path class="st0" d="M125.3,21.8v27.4c0.2,0.7,0.5,1.4,0.8,2.1V19.8C125.8,20.5,125.5,21.1,125.3,21.8z"/>
	<path class="st0" d="M126.1,19.8v31.6c0.2,0.6,0.5,1.2,0.8,1.8V18C126.5,18.6,126.3,19.2,126.1,19.8z"/>
	<path class="st0" d="M126.8,18v35.1c0.2,0.5,0.5,1,0.8,1.6V16.4C127.3,17,127.1,17.5,126.8,18z"/>
	<path class="st0" d="M127.6,16.4v38.2c0.2,0.5,0.5,1,0.8,1.5V15C128.1,15.5,127.8,16,127.6,16.4z"/>
	<path class="st0" d="M128.3,15v41.2c0.2,0.4,0.5,0.9,0.8,1.3V41.8c-0.3-2-0.5-4.1-0.5-6.2c0-2.1,0.2-4.2,0.5-6.2V13.7
		C128.8,14.1,128.6,14.5,128.3,15z"/>
	<path class="st0" d="M129.1,13.7v15.7c0.2-1.2,0.5-2.3,0.8-3.5V12.5C129.6,12.9,129.3,13.3,129.1,13.7z"/>
	<path class="st0" d="M129.8,58.7V45.2c-0.3-1.1-0.6-2.3-0.8-3.4v15.7C129.3,57.9,129.6,58.3,129.8,58.7z"/>
	<path class="st0" d="M130.6,59.8V47.7c-0.3-0.8-0.5-1.6-0.8-2.5v13.5C130.1,59,130.3,59.4,130.6,59.8z"/>
	<path class="st0" d="M129.8,12.5v13.4c0.2-0.8,0.5-1.6,0.8-2.4V11.3C130.3,11.7,130.1,12.1,129.8,12.5z"/>
	<path class="st0" d="M131.4,60.9V49.7c-0.3-0.7-0.5-1.3-0.8-2v12.1C130.8,60.2,131.1,60.5,131.4,60.9z"/>
	<path class="st0" d="M130.6,11.3v12.1c0.2-0.7,0.5-1.3,0.8-2V10.3C131.1,10.6,130.8,11,130.6,11.3z"/>
	<path class="st0" d="M131.4,10.3v11.2c0.2-0.6,0.5-1.1,0.8-1.7V9.3C131.9,9.6,131.6,9.9,131.4,10.3z"/>
	<path class="st0" d="M132.1,61.9V51.4c-0.3-0.6-0.5-1.1-0.8-1.7v11.2C131.6,61.2,131.9,61.5,132.1,61.9z"/>
	<path class="st0" d="M132.9,62.8v-9.9c-0.3-0.5-0.5-1-0.8-1.5v10.5C132.4,62.2,132.6,62.5,132.9,62.8z"/>
	<path class="st0" d="M132.1,9.3v10.5c0.2-0.5,0.5-1,0.8-1.5V8.3C132.6,8.7,132.4,9,132.1,9.3z"/>
	<path class="st0" d="M133.6,63.7v-9.4c-0.3-0.4-0.5-0.9-0.8-1.4v9.9C133.1,63.1,133.4,63.4,133.6,63.7z"/>
	<path class="st0" d="M132.9,8.3v9.9c0.2-0.5,0.5-0.9,0.8-1.4V7.5C133.4,7.8,133.1,8,132.9,8.3z"/>
	<path class="st0" d="M134.4,64.5v-9c-0.3-0.4-0.5-0.8-0.8-1.2v9.4C133.9,64,134.1,64.2,134.4,64.5z"/>
	<path class="st0" d="M133.6,7.5v9.4c0.2-0.4,0.5-0.8,0.8-1.2v-9C134.1,6.9,133.9,7.2,133.6,7.5z"/>
	<path class="st0" d="M135.1,65.3v-8.7c-0.3-0.4-0.5-0.8-0.8-1.1v9C134.6,64.8,134.9,65,135.1,65.3z"/>
	<path class="st0" d="M134.4,6.6v9c0.2-0.4,0.5-0.8,0.8-1.1V5.8C134.9,6.1,134.6,6.3,134.4,6.6z"/>
	<path class="st0" d="M135.9,66.1v-8.4c-0.3-0.3-0.5-0.7-0.8-1.1v8.7C135.4,65.6,135.6,65.8,135.9,66.1z"/>
	<path class="st0" d="M135.1,5.8v8.7c0.2-0.4,0.5-0.7,0.8-1.1V5.1C135.6,5.3,135.4,5.6,135.1,5.8z"/>
	<path class="st0" d="M136.7,66.8v-8.1c-0.3-0.3-0.5-0.6-0.8-1v8.4C136.1,66.3,136.4,66.5,136.7,66.8z"/>
	<path class="st0" d="M135.9,5.1v8.4c0.2-0.3,0.5-0.7,0.8-1V4.4C136.4,4.6,136.1,4.8,135.9,5.1z"/>
	<path class="st0" d="M136.7,4.4v8.1c0.2-0.3,0.5-0.6,0.8-0.9V3.7C137.2,3.9,136.9,4.1,136.7,4.4z"/>
	<path class="st0" d="M137.4,67.5v-7.9c-0.3-0.3-0.5-0.6-0.8-0.9v8.1C136.9,67,137.2,67.2,137.4,67.5z"/>
	<path class="st0" d="M137.4,3.7v7.9c0.3-0.3,0.5-0.6,0.8-0.9V3C137.9,3.2,137.7,3.4,137.4,3.7z"/>
	<path class="st0" d="M138.2,68.1v-7.7c-0.3-0.3-0.5-0.6-0.8-0.9v7.9C137.7,67.7,137.9,67.9,138.2,68.1z"/>
	<path class="st0" d="M138.2,3v7.7c0.2-0.3,0.5-0.5,0.8-0.8V2.4C138.7,2.6,138.4,2.8,138.2,3z"/>
	<path class="st0" d="M138.9,68.7v-7.5c-0.3-0.3-0.5-0.5-0.8-0.8v7.7C138.4,68.3,138.7,68.5,138.9,68.7z"/>
	<path class="st0" d="M138.9,2.4v7.5c0.2-0.3,0.5-0.5,0.8-0.8V1.8C139.4,2,139.2,2.2,138.9,2.4z"/>
	<path class="st0" d="M139.7,69.4V62c-0.3-0.3-0.5-0.5-0.8-0.8v7.5C139.2,69,139.4,69.2,139.7,69.4z"/>
	<path class="st0" d="M139.7,1.8v7.4c0.2-0.2,0.5-0.5,0.8-0.7V1.2C140.2,1.4,139.9,1.6,139.7,1.8z"/>
	<path class="st0" d="M140.4,69.9v-7.2c-0.3-0.2-0.5-0.5-0.8-0.7v7.3C139.9,69.6,140.2,69.7,140.4,69.9z"/>
	<path class="st0" d="M140.4,1.2v7.2c0.1-0.1,0.2-0.2,0.4-0.4l0.4,0.5V0.7C140.9,0.9,140.7,1,140.4,1.2z"/>
	<path class="st0" d="M141.2,70.5v-7c-0.3-0.2-0.5-0.4-0.8-0.7v7.2C140.7,70.1,140.9,70.3,141.2,70.5z"/>
	<path class="st0" d="M141.8,0.2c-0.2,0.1-0.4,0.3-0.6,0.4v7.9l0.8,1V0.4L141.8,0.2z"/>
	<path class="st0" d="M141.8,70.9l0.2,0v-6.8c-0.3-0.2-0.5-0.4-0.8-0.7v7C141.4,70.6,141.6,70.7,141.8,70.9z"/>
	<polygon class="st0" points="142,0.4 142,9.5 142.7,10.5 142.7,1.4 	"/>
	<path class="st0" d="M142.7,70.9v-6.2c-0.3-0.2-0.5-0.4-0.8-0.6v6.8L142.7,70.9z"/>
	<polygon class="st0" points="142.7,1.4 142.7,10.5 143.5,11.5 143.5,2.4 	"/>
	<path class="st0" d="M143.5,70.9v-5.6c-0.3-0.2-0.5-0.4-0.8-0.6v6.2L143.5,70.9z"/>
	<path class="st0" d="M144.2,70.9v-5.1c-0.3-0.2-0.5-0.4-0.8-0.6v5.6L144.2,70.9z"/>
	<polygon class="st0" points="143.5,2.4 143.5,11.5 144.2,12.5 144.2,3.4 	"/>
	<path class="st0" d="M145,70.9v-4.5c-0.3-0.2-0.5-0.3-0.8-0.5v5.1L145,70.9z"/>
	<polygon class="st0" points="144.2,3.4 144.2,12.5 145,13.5 145,4.4 	"/>
	<polygon class="st0" points="145,4.4 145,13.5 145.7,14.5 145.7,5.4 	"/>
	<path class="st0" d="M145.7,70.9v-4c-0.3-0.2-0.5-0.3-0.8-0.5v4.5L145.7,70.9z"/>
	<path class="st0" d="M146.5,70.9v-3.6c-0.3-0.2-0.5-0.3-0.8-0.5v4L146.5,70.9z"/>
	<polygon class="st0" points="145.7,5.4 145.7,14.5 146.5,15.4 146.5,6.3 	"/>
	<path class="st0" d="M147.3,70.9v-3.1c-0.3-0.1-0.5-0.3-0.8-0.4v3.6L147.3,70.9z"/>
	<polygon class="st0" points="146.5,6.3 146.5,15.4 147.3,16.4 147.3,7.3 	"/>
	<polygon class="st0" points="147.3,7.3 147.3,16.4 148,17.4 148,8.3 	"/>
	<path class="st0" d="M148,70.9v-2.7c-0.3-0.1-0.5-0.3-0.8-0.4v3.1L148,70.9z"/>
	<polygon class="st0" points="148,8.3 148,17.4 148.8,18.4 148.8,9.3 	"/>
	<path class="st0" d="M148.8,70.9v-2.3c-0.3-0.1-0.5-0.3-0.8-0.4v2.7L148.8,70.9z"/>
	<path class="st0" d="M149.5,70.9v-1.9c-0.3-0.1-0.5-0.2-0.8-0.4v2.3L149.5,70.9z"/>
	<polygon class="st0" points="148.8,9.3 148.8,18.4 149.5,19.4 149.5,10.3 	"/>
	<polygon class="st0" points="149.5,10.3 149.5,19.4 150.3,20.4 150.3,11.3 	"/>
	<path class="st0" d="M150.3,70.9v-1.6c-0.3-0.1-0.5-0.2-0.8-0.4v1.9L150.3,70.9z"/>
	<path class="st0" d="M151,70.9v-1.2c-0.3-0.1-0.5-0.2-0.8-0.3v1.6L151,70.9z"/>
	<polygon class="st0" points="150.3,11.3 150.3,20.4 151,21.3 151,12.3 	"/>
	<polygon class="st0" points="151,12.3 151,21.3 151.8,22.3 151.8,13.2 	"/>
	<path class="st0" d="M151.8,70.9V70c-0.3-0.1-0.5-0.2-0.8-0.3v1.2L151.8,70.9z"/>
	<polygon class="st0" points="151.8,13.2 151.8,22.3 152.6,23.3 152.6,14.2 	"/>
	<path class="st0" d="M152.6,70.9v-0.6c-0.3-0.1-0.5-0.2-0.8-0.3v0.9L152.6,70.9z"/>
	<polygon class="st0" points="152.6,14.2 152.6,23.3 153.3,24.3 153.3,15.2 	"/>
	<path class="st0" d="M153.3,70.9v-0.3c-0.3-0.1-0.5-0.2-0.8-0.3v0.6L153.3,70.9z"/>
	<path class="st0" d="M154.1,70.9L154.1,70.9c-0.3-0.2-0.5-0.3-0.8-0.4v0.3L154.1,70.9z"/>
	<polygon class="st0" points="153.3,15.2 153.3,24.3 154.1,25.3 154.1,16.2 	"/>
	<path class="st0" d="M154.3,70.9c-0.1,0-0.2-0.1-0.3-0.1v0.1L154.3,70.9z"/>
	<polygon class="st0" points="154.1,16.2 154.1,25.3 154.8,26.3 154.8,17.2 	"/>
	<polygon class="st0" points="154.8,17.2 154.8,26.3 155.6,27.2 155.6,18.2 	"/>
	<polygon class="st0" points="155.6,18.2 155.6,27.2 156.3,28.2 156.3,19.1 	"/>
	<polygon class="st0" points="156.3,19.1 156.3,28.2 157.1,29.2 157.1,20.1 	"/>
	<polygon class="st0" points="157.1,20.1 157.1,29.2 157.9,30.2 157.9,21.1 	"/>
	<polygon class="st0" points="157.9,21.1 157.9,30.2 158.6,31.2 158.6,22.1 	"/>
	<polygon class="st0" points="158.6,22.1 158.6,31.2 159.4,32.2 159.4,23.1 	"/>
	<polygon class="st0" points="159.4,23.1 159.4,32.2 160.1,33.2 160.1,24.1 	"/>
	<polygon class="st0" points="160.1,24.1 160.1,33.2 160.9,34.1 160.9,25.1 	"/>
	<polygon class="st0" points="160.9,25.1 160.9,34.1 161.6,35.1 161.6,26 	"/>
	<polygon class="st0" points="161.6,26 161.6,35.1 162.4,36.1 162.4,27 	"/>
	<polygon class="st0" points="162.4,27 162.4,36.1 163.2,37.1 163.2,28 	"/>
	<polygon class="st0" points="163.2,28 163.2,37.1 163.9,38.1 163.9,29 	"/>
	<polygon class="st0" points="163.9,29 163.9,38.1 164.7,39.1 164.7,30 	"/>
	<polygon class="st0" points="164.7,30 164.7,39.1 165.4,40 165.4,31 	"/>
	<polygon class="st0" points="165.4,31 165.4,40 166.2,41 166.2,32 	"/>
	<polygon class="st0" points="166.9,33.4 166.7,33 166.8,32.8 166.2,32 166.2,41 166.9,42 	"/>
	<polygon class="st0" points="166.9,33.4 166.9,32.9 166.8,32.8 166.7,33 	"/>
	<polygon class="st0" points="167.7,34.4 166.9,33.4 166.9,42 167.7,43 	"/>
	<polygon class="st0" points="166.9,32.9 166.9,33.4 167.7,34.4 167.7,33.9 	"/>
	<polygon class="st0" points="168.5,35.3 167.7,34.4 167.7,43 168.5,44 	"/>
	<polygon class="st0" points="167.7,33.9 167.7,34.4 168.5,35.3 168.5,34.9 	"/>
	<polygon class="st0" points="169.2,36.3 168.5,35.3 168.5,44 169.2,45 	"/>
	<polygon class="st0" points="168.5,34.9 168.5,35.3 169.2,36.3 169.2,35.9 	"/>
	<polygon class="st0" points="170,37.3 169.2,36.3 169.2,45 170,45.9 	"/>
	<polygon class="st0" points="169.2,35.9 169.2,36.3 170,37.3 170,36.9 	"/>
	<polygon class="st0" points="170.7,38.3 170.5,38 170,37.3 170,45.9 170.7,46.9 	"/>
	<polygon class="st0" points="170.5,37.6 170.5,38 170.7,38.3 170.7,37.9 	"/>
	<polygon class="st0" points="170,36.9 170,37.3 170.5,38 170.5,37.6 	"/>
	<path class="st0" d="M171.1,38.3c0,0.1-0.1,0.2-0.1,0.3l0-0.1l-0.2-0.2v8.6l0.8,1v-9.1L171.1,38.3z"/>
	<path class="st0" d="M170.9,38.5L170.9,38.5c0.1,0,0.1-0.1,0.2-0.2l-0.2-0.2V38.5z"/>
	<polygon class="st0" points="170.7,37.9 170.7,38.3 170.9,38.5 170.9,38.1 	"/>
	<polygon class="st0" points="171.5,38.9 171.5,47.9 172.2,48.9 172.2,39.8 	"/>
	<polygon class="st0" points="172.2,39.8 172.2,48.9 173,49.9 173,40.8 	"/>
	<polygon class="st0" points="173.8,41.8 173,40.8 173,49.9 173.8,50.9 	"/>
	<polygon class="st0" points="174.5,42.8 173.8,41.8 173.8,50.9 174.5,51.8 	"/>
	<path class="st0" d="M175.3,44.2l-0.1-0.1l-0.1-0.1c0,0,0,0,0.1-0.1c0,0,0.1-0.1,0.1-0.1l-0.8-1v9l0.8,1V44.2z"/>
	<path class="st0" d="M175.2,44l0.1,0.1v-0.4l0,0c0,0-0.1,0.1-0.1,0.1V44z"/>
	<path class="st0" d="M175.1,44L175.1,44L175.1,44C175.1,43.9,175.1,44,175.1,44z"/>
	<polygon class="st0" points="176,45.2 175.9,45.1 175.6,44.6 175.3,44.2 175.3,52.8 176,53.8 	"/>
	<polygon class="st0" points="175.9,44.6 175.9,45.1 176,45.2 176,44.8 	"/>
	<polygon class="st0" points="175.6,44.1 175.6,44.6 175.9,45.1 175.9,44.6 	"/>
	<polygon class="st0" points="175.3,43.8 175.3,44.2 175.6,44.6 175.6,44.1 	"/>
	<polygon class="st0" points="176.8,46.2 176.7,46.1 176.3,45.6 176,45.2 176,53.8 176.8,54.8 	"/>
	<polygon class="st0" points="176.7,45.6 176.7,46.1 176.8,46.2 176.8,45.8 	"/>
	<polygon class="st0" points="176.3,45.1 176.3,45.6 176.7,46.1 176.7,45.6 	"/>
	<polygon class="st0" points="176,44.8 176,45.2 176.3,45.6 176.3,45.1 	"/>
	<polygon class="st0" points="177.6,47.2 177.5,47.1 177.1,46.6 176.8,46.2 176.8,54.8 177.6,55.8 	"/>
	<polygon class="st0" points="177.5,46.7 177.5,47.1 177.6,47.2 177.6,46.7 	"/>
	<polygon class="st0" points="177.1,46.2 177.1,46.6 177.5,47.1 177.5,46.7 	"/>
	<polygon class="st0" points="176.8,45.8 176.8,46.2 177.1,46.6 177.1,46.2 	"/>
	<polygon class="st0" points="178.3,48.1 178.3,48.1 177.9,47.6 177.6,47.2 177.6,55.8 178.3,56.8 	"/>
	<polygon class="st0" points="178.3,47.7 178.3,48.1 178.3,48.1 178.3,47.7 	"/>
	<polygon class="st0" points="177.9,47.2 177.9,47.6 178.3,48.1 178.3,47.7 	"/>
	<polygon class="st0" points="177.6,46.7 177.6,47.2 177.9,47.6 177.9,47.2 	"/>
	<path class="st0" d="M178.8,48.3c0,0-0.1,0.1-0.1,0.1c0,0,0,0-0.1,0.1l-0.3-0.4v8.6l0.8,1v-9L178.8,48.3z"/>
	<path class="st0" d="M178.6,48.4c0,0,0.1-0.1,0.1-0.1l-0.1-0.1V48.4z"/>
	<path class="st0" d="M178.3,47.7v0.4l0.3,0.4c0,0,0,0,0.1-0.1v-0.3L178.3,47.7z"/>
	<polygon class="st0" points="179.1,48.7 179.1,57.7 179.8,58.7 179.8,49.7 	"/>
	<polygon class="st0" points="179.8,49.7 179.8,58.7 180.6,59.7 180.6,50.7 	"/>
	<polygon class="st0" points="181.3,51.7 180.6,50.7 180.6,59.7 181.3,60.7 	"/>
	<polygon class="st0" points="182.1,52.7 181.3,51.7 181.3,60.7 182.1,61.7 	"/>
	<path class="st0" d="M182.9,54l-0.3-0.4l0,0c0,0,0,0,0,0c0,0,0.1-0.1,0.1-0.1l-0.6-0.7v9l0.8,1V54z"/>
	<path class="st0" d="M182.5,53.6l0.3,0.4v-0.4l-0.2-0.3C182.6,53.4,182.6,53.5,182.5,53.6L182.5,53.6z"/>
	<path class="st0" d="M182.5,53.6L182.5,53.6L182.5,53.6C182.5,53.5,182.5,53.5,182.5,53.6z"/>
	<polygon class="st0" points="183.6,55 183.3,54.6 182.9,54.1 182.9,54 182.9,62.7 183.6,63.7 	"/>
	<polygon class="st0" points="183.3,54.2 183.3,54.6 183.6,55 183.6,54.6 	"/>
	<polygon class="st0" points="182.9,53.7 182.9,54.1 183.3,54.6 183.3,54.2 	"/>
	<polygon class="st0" points="182.9,53.6 182.9,54 182.9,54.1 182.9,53.7 	"/>
	<polygon class="st0" points="184.4,56 184.1,55.6 183.7,55.1 183.6,55 183.6,63.7 184.4,64.6 	"/>
	<polygon class="st0" points="184.1,55.2 184.1,55.6 184.4,56 184.4,55.6 	"/>
	<polygon class="st0" points="183.7,54.7 183.7,55.1 184.1,55.6 184.1,55.2 	"/>
	<polygon class="st0" points="183.6,54.6 183.6,55 183.7,55.1 183.7,54.7 	"/>
	<polygon class="st0" points="185.1,57 184.8,56.6 184.4,56.1 184.4,56 184.4,64.6 185.1,65.6 	"/>
	<polygon class="st0" points="184.8,56.2 184.8,56.6 185.1,57 185.1,56.6 	"/>
	<polygon class="st0" points="184.4,55.7 184.4,56.1 184.8,56.6 184.8,56.2 	"/>
	<polygon class="st0" points="184.4,55.6 184.4,56 184.4,56.1 184.4,55.7 	"/>
	<polygon class="st0" points="185.9,58 185.6,57.6 185.2,57.1 185.1,57 185.1,65.6 185.9,66.6 	"/>
	<polygon class="st0" points="185.6,57.2 185.6,57.6 185.9,58 185.9,57.6 	"/>
	<polygon class="st0" points="185.2,56.7 185.2,57.1 185.6,57.6 185.6,57.2 	"/>
	<polygon class="st0" points="185.1,56.6 185.1,57 185.2,57.1 185.2,56.7 	"/>
	<path class="st0" d="M186.1,57.9c0,0-0.1,0.1-0.1,0.1c0,0,0,0-0.1,0.1l0-0.1v8.6l0.8,1v-9L186.1,57.9z"/>
	<path class="st0" d="M186,58c0,0,0.1-0.1,0.1-0.1l-0.1-0.1V58z"/>
	<path class="st0" d="M185.9,57.6V58l0,0.1c0,0,0,0,0.1-0.1v-0.2L185.9,57.6z"/>
	<polygon class="st0" points="186.6,58.6 186.6,67.6 187.4,68.6 187.4,59.6 	"/>
	<polygon class="st0" points="188.2,60.5 187.4,59.6 187.4,68.6 188.2,69.6 	"/>
	<polygon class="st0" points="188.9,61.5 188.2,60.5 188.2,69.6 188.9,70.5 	"/>
	<polygon class="st0" points="189.7,62.5 188.9,61.5 188.9,70.5 189.2,70.9 189.7,70.5 	"/>
	<path class="st0" d="M190.4,63.9l-0.2-0.2l-0.4-0.5l0,0c0,0,0,0,0,0c0,0,0.1-0.1,0.1-0.1l-0.3-0.4v8l0.8-0.6V63.9z"/>
	<polygon class="st0" points="190.3,63.3 190.3,63.7 190.4,63.9 190.4,63.5 	"/>
	<path class="st0" d="M189.9,63.2l0.4,0.5v-0.4l-0.2-0.3C190,63,189.9,63,189.9,63.2L189.9,63.2z"/>
	<path class="st0" d="M189.8,63.1L189.8,63.1L189.8,63.1C189.9,63.1,189.8,63.1,189.8,63.1z"/>
	<polygon class="st0" points="191.2,64.9 191,64.7 190.6,64.2 190.4,63.9 190.4,69.9 191.2,69.2 	"/>
	<polygon class="st0" points="191,64.3 191,64.7 191.2,64.9 191.2,64.5 	"/>
	<polygon class="st0" points="190.6,63.8 190.6,64.2 191,64.7 191,64.3 	"/>
	<polygon class="st0" points="190.4,63.5 190.4,63.9 190.6,64.2 190.6,63.8 	"/>
	<polygon class="st0" points="191.9,65.9 191.8,65.7 191.4,65.2 191.2,64.9 191.2,69.2 191.9,68.6 	"/>
	<polygon class="st0" points="191.8,65.3 191.8,65.7 191.9,65.9 191.9,65.5 	"/>
	<polygon class="st0" points="191.4,64.8 191.4,65.2 191.8,65.7 191.8,65.3 	"/>
	<polygon class="st0" points="191.2,64.5 191.2,64.9 191.4,65.2 191.4,64.8 	"/>
	<polygon class="st0" points="192.7,66.8 192.6,66.7 192.2,66.2 191.9,65.9 191.9,68.6 192.7,68 	"/>
	<polygon class="st0" points="192.6,66.3 192.6,66.7 192.7,66.8 192.7,66.4 	"/>
	<polygon class="st0" points="192.2,65.8 192.2,66.2 192.6,66.7 192.6,66.3 	"/>
	<polygon class="st0" points="191.9,65.5 191.9,65.9 192.2,66.2 192.2,65.8 	"/>
	<polygon class="st0" points="192.7,66.8 192.7,68 193.3,67.6 193,67.2 	"/>
	<path class="st0" d="M193.3,67.5l0.1-0.1l0,0C193.4,67.5,193.4,67.5,193.3,67.5C193.3,67.5,193.3,67.5,193.3,67.5z"/>
	<path class="st0" d="M193.3,67.5c0,0,0.1-0.1,0.1-0.1l-0.1-0.1V67.5z"/>
	<path class="st0" d="M193.3,67.3l-0.4-0.5v0.4l0.3,0.4l0,0c0,0,0,0,0,0V67.3z"/>
	<polygon class="st0" points="192.7,66.8 193,67.2 193,66.8 192.7,66.4 	"/>
	<polygon class="st0" points="100,102.1 94.9,94.7 93.6,94.7 93.6,104.3 94.9,104.3 94.9,96.8 99.9,104.3 101.3,104.3 101.3,94.7 
		100,94.7 	"/>
	<polygon class="st0" points="111.7,104.3 113,104.3 113,100 117.4,100 117.4,98.8 113,98.8 113,95.9 117.8,95.9 117.8,94.7 
		111.7,94.7 	"/>
	<path class="st0" d="M126.9,99.5c0,3.2,1.9,5,4.9,5c1,0,2-0.2,2.9-0.5v-1.3c-1.4,0.6-2.1,0.7-2.9,0.7c-1.9,0-3.6-1.2-3.6-3.8
		c0-2.6,1.5-3.8,3.6-3.8c0.8,0,1.5,0.1,2.9,0.7V95c-1-0.4-1.9-0.5-2.9-0.5C128.8,94.5,126.9,96.3,126.9,99.5z"/>
	<polygon class="st0" points="157.3,95.9 160.2,95.9 160.2,104.3 161.5,104.3 161.5,95.9 164.5,95.9 164.5,94.7 157.3,94.7 	"/>
	<path class="st0" d="M178.1,94.5c-2.9,0-4.7,2-4.7,5c0,3,1.8,5,4.7,5s4.7-2,4.7-5C182.8,96.5,181,94.5,178.1,94.5z M178.1,103.4
		c-2.2,0-3.3-1.6-3.3-3.8c0-2.3,1.1-3.8,3.3-3.8c2.2,0,3.4,1.6,3.4,3.8C181.5,101.8,180.4,103.4,178.1,103.4z"/>
	<path class="st0" d="M198.8,100.7c0,1.7-0.9,2.6-2.4,2.6c-1.6,0-2.4-0.9-2.4-2.6v-6h-1.3v6c0,2.3,1.3,3.7,3.8,3.7
		c2.5,0,3.7-1.4,3.7-3.7v-6h-1.3V100.7z"/>
	<path class="st0" d="M210,99.5c0,3.2,1.9,5,4.9,5c1,0,2-0.2,2.9-0.5v-1.3c-1.4,0.6-2.1,0.7-2.9,0.7c-1.9,0-3.6-1.2-3.6-3.8
		c0-2.6,1.5-3.8,3.6-3.8c0.8,0,1.5,0.1,2.9,0.7V95c-1-0.4-1.9-0.5-2.9-0.5C212,94.5,210,96.3,210,99.5z"/>
	<polygon class="st0" points="234.1,94.7 234.1,98.8 229.3,98.8 229.3,94.7 227.9,94.7 227.9,104.3 229.3,104.3 229.3,100 
		234.1,100 234.1,104.3 235.4,104.3 235.4,94.7 	"/>
</g>
</svg>
