<?xml version="1.0" encoding="utf-8"?>
<!-- Generator: Adobe Illustrator 25.0.1, SVG Export Plug-In . SVG Version: 6.00 Build 0)  -->
<svg version="1.1" id="Layer_1" xmlns="http://www.w3.org/2000/svg" xmlns:xlink="http://www.w3.org/1999/xlink" x="0px" y="0px"
	 viewBox="0 0 327.9 104.6" style="enable-background:new 0 0 327.9 104.6;" xml:space="preserve">
<style type="text/css">
	.st0{fill:#FFFFFF;}
	.st1{fill:#0081CD;}
	.st2{fill:#0080CC;}
	.st3{fill:#007FCC;}
	.st4{fill:#007ECB;}
	.st5{fill:#007DCB;}
	.st6{fill:#007CCA;}
	.st7{fill:#007BCA;}
	.st8{fill:#007AC9;}
	.st9{fill:#0079C9;}
	.st10{fill:#0078C8;}
	.st11{fill:#0077C8;}
	.st12{fill:#0076C7;}
	.st13{fill:#0075C7;}
	.st14{fill:#0074C6;}
	.st15{fill:#0073C6;}
	.st16{fill:#0072C6;}
	.st17{fill:#0071C5;}
	.st18{fill:#0070C5;}
	.st19{fill:#006FC4;}
	.st20{fill:#00B2E3;}
	.st21{fill:#00B1E3;}
	.st22{fill:#00B0E2;}
	.st23{fill:#00AFE2;}
	.st24{fill:#00AEE1;}
	.st25{fill:#00ADE1;}
	.st26{fill:#00ACE0;}
	.st27{fill:#00ABE0;}
	.st28{fill:#00AADF;}
	.st29{fill:#00A9DF;}
	.st30{fill:#00A8DE;}
	.st31{fill:#00A7DE;}
	.st32{fill:#00A6DD;}
	.st33{fill:#00A5DD;}
	.st34{fill:#00A4DC;}
	.st35{fill:#00A3DC;}
	.st36{fill:#00A2DC;}
	.st37{fill:#00A1DB;}
	.st38{fill:#00A0DB;}
	.st39{fill:#009FDA;}
	.st40{fill:#009EDA;}
	.st41{fill:#009DD9;}
	.st42{fill:#009CD9;}
	.st43{fill:#009BD8;}
	.st44{fill:#009AD8;}
	.st45{fill:#0099D7;}
	.st46{fill:#0098D7;}
	.st47{fill:#0097D6;}
	.st48{fill:#0096D6;}
	.st49{fill:#0095D5;}
	.st50{fill:#0094D5;}
	.st51{fill:#0093D5;}
	.st52{fill:#0092D4;}
	.st53{fill:#0091D4;}
	.st54{fill:#0090D3;}
	.st55{fill:#008FD3;}
	.st56{fill:#008ED2;}
	.st57{fill:#008DD2;}
	.st58{fill:#008CD1;}
	.st59{fill:#008BD1;}
	.st60{fill:#008AD0;}
	.st61{fill:#0089D0;}
	.st62{fill:#0088CF;}
	.st63{fill:#0087CF;}
	.st64{fill:#0086CE;}
	.st65{fill:#0085CE;}
	.st66{fill:#0084CE;}
	.st67{fill:#0082CD;}
	.st68{fill:#006EC4;}
	.st69{fill:#006DC3;}
	.st70{fill:#006CC3;}
	.st71{fill:#006BC2;}
	.st72{fill:#006AC2;}
	.st73{fill:#0069C1;}
	.st74{fill:#0068C1;}
	.st75{fill:#0067C0;}
	.st76{fill:#0066C0;}
	.st77{fill:#0065BF;}
	.st78{fill:#0064BF;}
	.st79{fill:#0063BF;}
	.st80{fill:#0062BE;}
	.st81{fill:#0061BE;}
	.st82{fill:#0060BD;}
	.st83{fill:#005FBD;}
	.st84{fill:#005EBC;}
	.st85{fill:#005DBC;}
	.st86{fill:#005CBB;}
	.st87{fill:#0058B9;}
	.st88{fill:#0057B9;}
	.st89{fill:#0056B8;}
	.st90{fill:#0055B8;}
	.st91{fill:#005BBB;}
	.st92{fill:#005ABA;}
	.st93{fill:#0059BA;}
</style>
<g>
	<path class="st0" d="M177.6,95.7c-2.2,0-3.3,1.6-3.3,3.8c0,2.3,1.1,3.8,3.3,3.8c2.2,0,3.4-1.6,3.4-3.8
		C180.9,97.2,179.8,95.7,177.6,95.7z"/>
	<path class="st1" d="M187,13.2v9.5c0,0.1,0.1,0.1,0.1,0.2v-9.6C187.1,13.3,187,13.2,187,13.2z"/>
	<path class="st1" d="M187.1,56.3v-9.6c0,0.1-0.1,0.1-0.1,0.2v9.5C187,56.4,187.1,56.4,187.1,56.3z"/>
	<path class="st2" d="M186.6,12.8V22c0.1,0.2,0.3,0.5,0.4,0.7v-9.5C186.9,13.1,186.7,12.9,186.6,12.8z"/>
	<path class="st2" d="M187,56.5V47c-0.1,0.2-0.3,0.5-0.4,0.7v9.2C186.7,56.7,186.9,56.6,187,56.5z"/>
	<path class="st3" d="M186.2,12.4v8.9c0.1,0.2,0.3,0.4,0.4,0.6v-9.2C186.5,12.7,186.4,12.5,186.2,12.4z"/>
	<path class="st3" d="M186.6,56.9v-9.2c-0.1,0.2-0.3,0.4-0.4,0.6v8.9C186.3,57.1,186.5,57,186.6,56.9z"/>
	<path class="st4" d="M186.2,57.2v-8.9c-0.1,0.2-0.3,0.4-0.4,0.6v8.7C186,57.5,186.1,57.4,186.2,57.2z"/>
	<path class="st4" d="M185.8,12.1v8.7c0.1,0.2,0.3,0.4,0.4,0.6v-8.9C186.1,12.3,186,12.2,185.8,12.1z"/>
	<path class="st5" d="M185.6,57.9c0.1-0.1,0.2-0.2,0.3-0.3v-8.7c-0.1,0.2-0.3,0.4-0.4,0.6v8.2L185.6,57.9z"/>
	<path class="st5" d="M185.4,11.7v8.5c0.1,0.2,0.3,0.4,0.4,0.6v-8.7C185.7,11.9,185.6,11.8,185.4,11.7z"/>
	<path class="st6" d="M185.1,11.4v8.3c0.1,0.2,0.3,0.4,0.4,0.5v-8.5C185.3,11.6,185.2,11.5,185.1,11.4z"/>
	<path class="st6" d="M185.3,57.6l0.1,0.1v-8.2c-0.1,0.2-0.3,0.4-0.4,0.5v7.2L185.3,57.6z"/>
	<path class="st7" d="M185.1,57.2V50c-0.1,0.2-0.3,0.3-0.4,0.5v6.2L185.1,57.2z"/>
	<path class="st7" d="M184.7,11v8.1c0.1,0.2,0.3,0.3,0.4,0.5v-8.3C184.9,11.2,184.8,11.1,184.7,11z"/>
	<path class="st8" d="M184.3,10.7v7.9c0.1,0.2,0.3,0.3,0.4,0.5V11C184.5,10.9,184.4,10.8,184.3,10.7z"/>
	<path class="st8" d="M184.6,56.6l0.1,0.1v-6.2c-0.1,0.2-0.3,0.3-0.4,0.5v5.2L184.6,56.6z"/>
	<path class="st9" d="M184.3,56.2V51c-0.1,0.2-0.3,0.3-0.4,0.5v4.2L184.3,56.2z"/>
	<path class="st9" d="M183.9,10.4v7.8c0.1,0.1,0.3,0.3,0.4,0.4v-7.9C184.2,10.6,184,10.5,183.9,10.4z"/>
	<path class="st10" d="M183.5,10.1v7.7c0.1,0.1,0.3,0.3,0.4,0.4v-7.8C183.8,10.3,183.6,10.2,183.5,10.1z"/>
	<path class="st10" d="M183.8,55.6l0.1,0.1v-4.2c-0.1,0.1-0.3,0.3-0.4,0.4v3.3L183.8,55.6z"/>
	<path class="st11" d="M183.5,10l-0.4,0.5v6.8c0.1,0.1,0.3,0.3,0.4,0.4L183.5,10C183.5,10.1,183.5,10.1,183.5,10z"/>
	<path class="st11" d="M183.5,55.2v-3.3c-0.1,0.1-0.3,0.3-0.4,0.4v2.4L183.5,55.2z"/>
	<path class="st12" d="M183.1,54.6L183.1,54.6l0.1-2.3c-0.1,0.1-0.3,0.3-0.4,0.4v1.4L183.1,54.6z"/>
	<path class="st12" d="M182.7,11v5.9c0.1,0.1,0.3,0.3,0.4,0.4v-6.8L182.7,11z"/>
	<path class="st13" d="M182.4,11.5v5c0.1,0.1,0.3,0.3,0.4,0.4V11L182.4,11.5z"/>
	<path class="st13" d="M182.7,54.2v-1.4c-0.1,0.1-0.3,0.3-0.4,0.4v0.6L182.7,54.2z"/>
	<path class="st14" d="M182.4,53.7v-0.6c-0.1,0.1-0.2,0.2-0.2,0.2L182.4,53.7L182.4,53.7z"/>
	<path class="st14" d="M182,12v4.1c0.1,0.1,0.3,0.2,0.4,0.4v-5L182,12z"/>
	<path class="st15" d="M181.6,12.5v3.3c0.1,0.1,0.3,0.2,0.4,0.4V12L181.6,12.5z"/>
	<path class="st16" d="M181.2,13v2.4c0.1,0.1,0.3,0.2,0.4,0.4v-3.3L181.2,13z"/>
	<path class="st17" d="M180.8,13.5v1.6c0.1,0.1,0.3,0.2,0.4,0.3V13L180.8,13.5z"/>
	<path class="st18" d="M180.4,14v0.8c0.1,0.1,0.3,0.2,0.4,0.3v-1.6L180.4,14z"/>
	<path class="st19" d="M180,14.5c0.1,0.1,0.3,0.2,0.4,0.3V14L180,14.5z"/>
	<path class="st20" d="M205.9,46.6c1-3.8,1.6-7.7,1.6-11.7c0-4-0.6-8-1.6-11.7V46.6z"/>
	<path class="st20" d="M205.6,21.8v26.1c0.1-0.4,0.3-0.9,0.4-1.3V23.1C205.8,22.7,205.7,22.2,205.6,21.8z"/>
	<path class="st21" d="M205.2,20.6v28.5c0.1-0.4,0.3-0.8,0.4-1.2V21.8C205.4,21.4,205.3,21,205.2,20.6z"/>
	<path class="st22" d="M204.8,19.5v30.6c0.1-0.4,0.3-0.7,0.4-1.1V20.6C205.1,20.3,204.9,19.9,204.8,19.5z"/>
	<path class="st23" d="M204.4,18.5v32.6c0.1-0.3,0.3-0.7,0.4-1V19.5C204.7,19.2,204.5,18.9,204.4,18.5z"/>
	<path class="st24" d="M204,17.6v34.5c0.1-0.3,0.3-0.6,0.4-0.9V18.5C204.3,18.2,204.1,17.9,204,17.6z"/>
	<path class="st25" d="M203.6,16.7V53c0.1-0.3,0.3-0.6,0.4-0.9V17.6C203.9,17.3,203.8,17,203.6,16.7z"/>
	<path class="st26" d="M203.2,15.9v37.9c0.1-0.3,0.3-0.5,0.4-0.8V16.7C203.5,16.5,203.4,16.2,203.2,15.9z"/>
	<path class="st27" d="M202.9,15.1v39.4c0.1-0.3,0.3-0.5,0.4-0.8V15.9C203.1,15.6,203,15.4,202.9,15.1z"/>
	<path class="st28" d="M202.5,14.4v40.9c0.1-0.2,0.3-0.5,0.4-0.7V15.1C202.7,14.9,202.6,14.6,202.5,14.4z"/>
	<path class="st29" d="M202.1,13.7V56c0.1-0.2,0.3-0.5,0.4-0.7V14.4C202.3,14.2,202.2,13.9,202.1,13.7z"/>
	<path class="st30" d="M201.7,13v17.9c0.1,1.3,0.2,2.6,0.2,4c0,1.4-0.1,2.7-0.2,4.1v17.8c0.1-0.2,0.3-0.5,0.4-0.7V13.7
		C202,13.4,201.8,13.2,201.7,13z"/>
	<path class="st31" d="M201.3,41.6v15.8c0.1-0.2,0.3-0.4,0.4-0.6V38.9C201.6,39.8,201.5,40.7,201.3,41.6z"/>
	<path class="st31" d="M201.3,12.4v15.7c0.2,0.9,0.3,1.8,0.4,2.8V13C201.6,12.8,201.4,12.6,201.3,12.4z"/>
	<path class="st32" d="M200.9,43.5V58c0.1-0.2,0.3-0.4,0.4-0.6V41.6C201.2,42.2,201.1,42.8,200.9,43.5z"/>
	<path class="st32" d="M200.9,11.7v14.5c0.1,0.6,0.3,1.3,0.4,1.9V12.4C201.2,12.1,201.1,11.9,200.9,11.7z"/>
	<path class="st33" d="M200.5,45v13.6c0.1-0.2,0.3-0.4,0.4-0.6V43.5C200.8,44,200.7,44.5,200.5,45z"/>
	<path class="st33" d="M200.5,11.1v13.6c0.1,0.5,0.3,1,0.4,1.5V11.7C200.8,11.5,200.7,11.3,200.5,11.1z"/>
	<path class="st34" d="M200.1,46.3v12.8c0.1-0.2,0.3-0.4,0.4-0.6V45C200.4,45.5,200.3,45.9,200.1,46.3z"/>
	<path class="st34" d="M200.1,10.5v12.9c0.1,0.4,0.3,0.9,0.4,1.3V11.1C200.4,10.9,200.3,10.7,200.1,10.5z"/>
	<path class="st35" d="M199.8,47.5v12.2c0.1-0.2,0.3-0.4,0.4-0.6V46.3C200,46.7,199.9,47.1,199.8,47.5z"/>
	<path class="st35" d="M199.8,10v12.2c0.1,0.4,0.3,0.8,0.4,1.2V10.5C200,10.3,199.9,10.2,199.8,10z"/>
	<path class="st36" d="M199.4,9.4v11.8c0.1,0.3,0.3,0.7,0.4,1V10C199.6,9.8,199.5,9.6,199.4,9.4z"/>
	<path class="st36" d="M199.4,48.6v11.7c0.1-0.2,0.3-0.4,0.4-0.6V47.5C199.6,47.8,199.5,48.2,199.4,48.6z"/>
	<path class="st37" d="M199,8.9v11.3c0.1,0.3,0.3,0.7,0.4,1V9.4C199.2,9.2,199.1,9.1,199,8.9z"/>
	<path class="st37" d="M199,49.5v11.3c0.1-0.2,0.3-0.4,0.4-0.5V48.6C199.3,48.9,199.1,49.2,199,49.5z"/>
	<path class="st38" d="M198.6,50.4v10.9c0.1-0.2,0.3-0.3,0.4-0.5V49.5C198.9,49.8,198.7,50.1,198.6,50.4z"/>
	<path class="st38" d="M198.6,8.4v10.9c0.1,0.3,0.3,0.6,0.4,0.9V8.9C198.9,8.7,198.7,8.6,198.6,8.4z"/>
	<path class="st39" d="M198.2,51.2v10.6c0.1-0.2,0.3-0.3,0.4-0.5V50.4C198.5,50.7,198.3,50.9,198.2,51.2z"/>
	<path class="st39" d="M198.2,7.9v10.6c0.1,0.3,0.3,0.6,0.4,0.8V8.4C198.5,8.2,198.3,8,198.2,7.9z"/>
	<path class="st40" d="M197.8,7.4v10.3c0.1,0.3,0.3,0.5,0.4,0.8V7.9C198.1,7.7,198,7.5,197.8,7.4z"/>
	<path class="st40" d="M197.8,52v10.3c0.1-0.2,0.3-0.3,0.4-0.5V51.2C198.1,51.5,198,51.8,197.8,52z"/>
	<path class="st41" d="M197.4,6.9v10c0.1,0.2,0.3,0.5,0.4,0.7V7.4C197.7,7.2,197.6,7.1,197.4,6.9z"/>
	<path class="st41" d="M197.4,52.7v10c0.1-0.2,0.3-0.3,0.4-0.5V52C197.7,52.3,197.6,52.5,197.4,52.7z"/>
	<path class="st42" d="M197.1,53.5v9.7c0.1-0.1,0.3-0.3,0.4-0.4v-10C197.3,53,197.2,53.2,197.1,53.5z"/>
	<path class="st42" d="M197.1,6.5v9.7c0.1,0.2,0.3,0.5,0.4,0.7v-10C197.3,6.8,197.2,6.6,197.1,6.5z"/>
	<path class="st43" d="M196.7,6v9.5c0.1,0.2,0.3,0.4,0.4,0.6V6.5C196.9,6.3,196.8,6.2,196.7,6z"/>
	<path class="st43" d="M196.7,54.1v9.5c0.1-0.1,0.3-0.3,0.4-0.4v-9.7C196.9,53.7,196.8,53.9,196.7,54.1z"/>
	<path class="st44" d="M196.3,54.8v9.3c0.1-0.1,0.3-0.3,0.4-0.4v-9.5C196.5,54.3,196.4,54.5,196.3,54.8z"/>
	<path class="st44" d="M196.3,5.6v9.3c0.1,0.2,0.3,0.4,0.4,0.6V6C196.5,5.9,196.4,5.7,196.3,5.6z"/>
	<path class="st45" d="M195.9,55.4v9.1c0.1-0.1,0.3-0.3,0.4-0.4v-9.3C196.1,55,196,55.2,195.9,55.4z"/>
	<path class="st45" d="M195.9,5.2v9.1c0.1,0.2,0.3,0.4,0.4,0.6V5.6C196.1,5.5,196,5.3,195.9,5.2z"/>
	<path class="st46" d="M195.5,4.8V10h0.2v4c0.1,0.1,0.1,0.2,0.2,0.3V5.2C195.8,5,195.6,4.9,195.5,4.8z"/>
	<path class="st46" d="M195.7,55.7V58h-0.2v6.9c0.1-0.1,0.3-0.3,0.4-0.4v-9.1C195.8,55.5,195.8,55.6,195.7,55.7z"/>
	<path class="st46" d="M195.5,10v3.7c0.1,0.1,0.1,0.2,0.2,0.3v-4H195.5z"/>
	<path class="st46" d="M195.7,34.8c0-1.1-0.1-2.2-0.2-3.3v6.7C195.6,37.1,195.7,36,195.7,34.8z"/>
	<path class="st46" d="M195.7,58v-2.3c-0.1,0.1-0.1,0.2-0.2,0.3V58H195.7z"/>
	<path class="st47" d="M195.1,58v7.3c0.1-0.1,0.3-0.3,0.4-0.4V58H195.1z"/>
	<path class="st47" d="M195.5,10V4.8c-0.1-0.1-0.3-0.3-0.4-0.4V10H195.5z"/>
	<path class="st47" d="M195.5,58V56c-0.1,0.2-0.3,0.4-0.4,0.6V58H195.5z"/>
	<path class="st47" d="M195.1,10v3.1c0.1,0.2,0.3,0.4,0.4,0.6V10H195.1z"/>
	<path class="st47" d="M195.5,38.2v-6.7c-0.1-0.9-0.2-1.7-0.4-2.6v11.9C195.3,39.9,195.4,39.1,195.5,38.2z"/>
	<path class="st48" d="M194.7,58v7.7c0.1-0.1,0.3-0.3,0.4-0.4V58H194.7z"/>
	<path class="st48" d="M195.1,10V4.4c-0.1-0.1-0.3-0.3-0.4-0.4V10H195.1z"/>
	<path class="st48" d="M194.7,10v2.6c0.1,0.2,0.3,0.4,0.4,0.6V10H194.7z"/>
	<path class="st48" d="M195.1,58v-1.5c-0.1,0.2-0.3,0.4-0.4,0.6v1H195.1z"/>
	<path class="st48" d="M195.1,40.8V28.9c-0.1-0.6-0.2-1.2-0.4-1.8v15.4C194.9,42,195,41.4,195.1,40.8z"/>
	<path class="st49" d="M194.7,10V4c-0.1-0.1-0.3-0.3-0.4-0.4V10H194.7z"/>
	<path class="st49" d="M194.3,58v8c0.1-0.1,0.3-0.3,0.4-0.4V58H194.3z"/>
	<path class="st49" d="M194.7,58v-1c-0.1,0.2-0.3,0.3-0.4,0.5V58H194.7z"/>
	<path class="st49" d="M194.3,10v2.1c0.1,0.2,0.3,0.3,0.4,0.5V10H194.3z"/>
	<path class="st49" d="M194.7,42.5V27.2c-0.1-0.5-0.2-0.9-0.4-1.4v18.2C194.5,43.5,194.6,43,194.7,42.5z"/>
	<path class="st50" d="M194.3,10V3.6c-0.1-0.1-0.3-0.2-0.4-0.4V10H194.3z"/>
	<path class="st50" d="M194,58C194,58.1,194,58.1,194,58l0,8.4c0.1-0.1,0.3-0.2,0.4-0.4v-8H194z"/>
	<path class="st50" d="M194.3,43.9V25.7c-0.1-0.4-0.3-0.8-0.4-1.2v20.6C194.1,44.7,194.2,44.3,194.3,43.9z"/>
	<path class="st50" d="M194,10v1.6c0.1,0.2,0.3,0.3,0.4,0.5V10H194z"/>
	<path class="st50" d="M194.3,57.6c-0.1,0.2-0.2,0.3-0.3,0.4h0.3V57.6z"/>
	<path class="st51" d="M194,10V3.2c-0.1-0.1-0.3-0.2-0.4-0.4V10H194z"/>
	<path class="st51" d="M193.6,58.6v8.2c0.1-0.1,0.3-0.2,0.4-0.4v-8.4C193.8,58.3,193.7,58.4,193.6,58.6z"/>
	<path class="st51" d="M193.6,10v1c0.1,0.2,0.3,0.3,0.4,0.5V10H193.6z"/>
	<path class="st51" d="M194,45.1V24.5c-0.1-0.3-0.3-0.7-0.4-1v22.7C193.7,45.8,193.8,45.5,194,45.1z"/>
	<path class="st52" d="M193.2,59.1v8.1c0.1-0.1,0.3-0.2,0.4-0.4v-8.2C193.4,58.8,193.3,58.9,193.2,59.1z"/>
	<path class="st52" d="M193.6,10V2.9c-0.1-0.1-0.3-0.2-0.4-0.4V10H193.6z"/>
	<path class="st52" d="M193.2,10v0.6c0.1,0.2,0.3,0.3,0.4,0.5v-1H193.2z"/>
	<path class="st52" d="M193.6,46.2V23.5c-0.1-0.3-0.2-0.7-0.4-1v24.6C193.3,46.8,193.4,46.5,193.6,46.2z"/>
	<path class="st53" d="M193.2,10V2.5c-0.1-0.1-0.3-0.2-0.4-0.4V10H193.2z"/>
	<path class="st53" d="M192.8,59.5v7.8l0.1,0.1c0.1-0.1,0.2-0.2,0.3-0.3v-8.1C193.1,59.2,192.9,59.4,192.8,59.5z"/>
	<path class="st53" d="M192.8,10v0.1c0.1,0.1,0.3,0.3,0.4,0.4V10H192.8z"/>
	<path class="st53" d="M193.2,47.1V22.5c-0.1-0.3-0.3-0.6-0.4-0.8V48C192.9,47.7,193.1,47.4,193.2,47.1z"/>
	<path class="st54" d="M192.8,67.3v-7.8c-0.1,0.1-0.3,0.3-0.4,0.4v6.8L192.8,67.3z"/>
	<path class="st54" d="M192.7,67.6C192.7,67.6,192.7,67.6,192.7,67.6L192.7,67.6L192.7,67.6z"/>
	<path class="st54" d="M192.8,2.2c-0.1-0.1-0.3-0.2-0.4-0.3v7.9c0.1,0.1,0.2,0.2,0.3,0.3h0.1V2.2z"/>
	<path class="st54" d="M192.7,10c0,0,0.1,0.1,0.1,0.1V10H192.7z"/>
	<path class="st54" d="M192.8,48V21.7c-0.1-0.3-0.3-0.6-0.4-0.8v27.9C192.5,48.5,192.7,48.3,192.8,48z"/>
	<path class="st55" d="M192.1,66.4l0.3,0.3V60c-0.1,0.1-0.3,0.3-0.4,0.4v5.9L192.1,66.4z"/>
	<path class="st55" d="M192,1.5v7.8c0.1,0.1,0.3,0.3,0.4,0.4V1.8C192.3,1.7,192.1,1.6,192,1.5z"/>
	<path class="st55" d="M192.4,48.8V20.9c-0.1-0.2-0.3-0.5-0.4-0.7v29.4C192.2,49.3,192.3,49.1,192.4,48.8z"/>
	<path class="st56" d="M192,66.3v-5.9c-0.1,0.1-0.3,0.3-0.4,0.4v5L192,66.3z"/>
	<path class="st56" d="M191.6,1.2v7.7c0.1,0.1,0.3,0.3,0.4,0.4V1.5C191.9,1.4,191.8,1.3,191.6,1.2z"/>
	<path class="st56" d="M192,49.5V20.1c-0.1-0.2-0.3-0.5-0.4-0.7v30.9C191.8,50,191.9,49.8,192,49.5z"/>
	<path class="st57" d="M191.4,65.5l0.2,0.3v-5c-0.1,0.1-0.3,0.3-0.4,0.4v4.1L191.4,65.5z"/>
	<path class="st57" d="M191.2,0.9v7.6c0.1,0.1,0.3,0.3,0.4,0.4V1.2C191.5,1.1,191.4,1,191.2,0.9z"/>
	<path class="st57" d="M191.6,50.3V19.4c-0.1-0.2-0.3-0.4-0.4-0.6v32.1C191.4,50.7,191.5,50.5,191.6,50.3z"/>
	<path class="st58" d="M191.2,65.3v-4.1c-0.1,0.1-0.3,0.3-0.4,0.4v3.2L191.2,65.3z"/>
	<path class="st58" d="M190.9,0.6v7.5c0.1,0.1,0.3,0.3,0.4,0.4V0.9C191.1,0.8,191,0.7,190.9,0.6z"/>
	<path class="st58" d="M191.2,50.9V18.8c-0.1-0.2-0.3-0.4-0.4-0.6v33.4C191,51.3,191.1,51.1,191.2,50.9z"/>
	<path class="st59" d="M190.5,0.3L190.5,0.3l-0.1,7.4c0.1,0.1,0.3,0.3,0.4,0.4V0.6C190.8,0.5,190.7,0.4,190.5,0.3z"/>
	<path class="st59" d="M190.6,64.5l0.2,0.3v-3.2c-0.1,0.1-0.3,0.3-0.4,0.4v2.3L190.6,64.5z"/>
	<path class="st59" d="M190.9,51.5V18.1c-0.1-0.2-0.3-0.4-0.4-0.6v34.6C190.6,51.9,190.7,51.7,190.9,51.5z"/>
	<path class="st60" d="M190.5,64.3V62c-0.1,0.1-0.3,0.2-0.4,0.4v1.4L190.5,64.3z"/>
	<path class="st60" d="M190.1,0.9v6.4c0.1,0.1,0.3,0.2,0.4,0.4V0.4L190.1,0.9z"/>
	<path class="st60" d="M190.5,52.1V17.5c-0.1-0.2-0.3-0.4-0.4-0.6v35.7C190.2,52.5,190.3,52.3,190.5,52.1z"/>
	<path class="st61" d="M189.9,63.5l0.2,0.3v-1.4c-0.1,0.1-0.3,0.2-0.4,0.4v0.5L189.9,63.5z"/>
	<path class="st61" d="M189.7,1.4V7c0.1,0.1,0.3,0.2,0.4,0.4V0.9L189.7,1.4z"/>
	<path class="st61" d="M190.1,52.7V17c-0.1-0.2-0.3-0.4-0.4-0.6v14.2c0.2,1.4,0.3,2.8,0.3,4.2c0,1.4-0.1,2.8-0.3,4.2v14.2
		C189.8,53.1,190,52.9,190.1,52.7z"/>
	<path class="st62" d="M189.3,1.9v4.7c0.1,0.1,0.3,0.2,0.4,0.4V1.4L189.3,1.9z"/>
	<path class="st62" d="M189.7,62.7c-0.1,0.1-0.2,0.2-0.2,0.2l0.2,0.3V62.7z"/>
	<path class="st62" d="M189.7,53.3V39.1c-0.1,0.6-0.2,1.3-0.4,1.9v12.8C189.4,53.6,189.6,53.4,189.7,53.3z"/>
	<path class="st62" d="M189.3,15.9v12.8c0.2,0.6,0.3,1.3,0.4,1.9V16.4C189.6,16.2,189.4,16.1,189.3,15.9z"/>
	<path class="st63" d="M188.9,2.4v3.9c0.1,0.1,0.3,0.2,0.4,0.4V1.9L188.9,2.4z"/>
	<path class="st63" d="M188.9,15.4v11.9c0.1,0.5,0.3,0.9,0.4,1.4V15.9C189.2,15.7,189.1,15.6,188.9,15.4z"/>
	<path class="st63" d="M189.3,53.8V40.9c-0.1,0.5-0.2,1-0.4,1.4v11.9C189.1,54.1,189.2,53.9,189.3,53.8z"/>
	<path class="st64" d="M188.5,2.9v3c0.1,0.1,0.3,0.2,0.4,0.3V2.4L188.5,2.9z"/>
	<path class="st64" d="M188.5,14.9v11.2c0.1,0.4,0.3,0.8,0.4,1.2V15.4C188.8,15.3,188.7,15.1,188.5,14.9z"/>
	<path class="st64" d="M188.9,54.3V42.4c-0.1,0.4-0.2,0.8-0.4,1.2v11.2C188.7,54.6,188.8,54.4,188.9,54.3z"/>
	<path class="st65" d="M188.2,3.4v2.2c0.1,0.1,0.3,0.2,0.4,0.3v-3L188.2,3.4z"/>
	<path class="st65" d="M188.2,14.5v10.7c0.1,0.3,0.3,0.7,0.4,1V14.9C188.4,14.8,188.3,14.6,188.2,14.5z"/>
	<path class="st65" d="M188.5,54.7V43.5c-0.1,0.3-0.3,0.7-0.4,1v10.7C188.3,55,188.4,54.9,188.5,54.7z"/>
	<path class="st66" d="M187.8,3.9v1.4c0.1,0.1,0.3,0.2,0.4,0.3V3.4L187.8,3.9z"/>
	<path class="st66" d="M187.8,14v10.2c0.1,0.3,0.3,0.6,0.4,0.9V14.5C188,14.3,187.9,14.2,187.8,14z"/>
	<path class="st66" d="M188.2,55.2V44.5c-0.1,0.3-0.3,0.6-0.4,0.9v10.2C187.9,55.5,188,55.3,188.2,55.2z"/>
	<path class="st67" d="M187.4,4.4V5c0.1,0.1,0.3,0.2,0.4,0.3V3.9L187.4,4.4z"/>
	<path class="st67" d="M187.4,13.6v9.8c0.1,0.3,0.3,0.6,0.4,0.8V14C187.6,13.9,187.5,13.7,187.4,13.6z"/>
	<path class="st67" d="M187.8,55.6V45.4c-0.1,0.3-0.3,0.6-0.4,0.8v9.8C187.5,55.9,187.6,55.8,187.8,55.6z"/>
	<path class="st1" d="M187.1,4.8c0.1,0.1,0.2,0.2,0.3,0.2V4.4L187.1,4.8z"/>
	<path class="st1" d="M187.4,56.1v-9.8c-0.1,0.2-0.2,0.4-0.3,0.5v9.6C187.2,56.3,187.3,56.2,187.4,56.1z"/>
	<path class="st1" d="M187.1,13.3v9.6c0.1,0.2,0.2,0.3,0.3,0.5v-9.8C187.3,13.5,187.2,13.4,187.1,13.3z"/>
	<path class="st10" d="M183.8,34.8c0-1.2-0.1-2.3-0.3-3.5v6.8C183.7,37.1,183.8,36,183.8,34.8z"/>
	<path class="st11" d="M183.5,38.2v-6.8c-0.1-0.6-0.2-1.1-0.4-1.7v10.2C183.3,39.4,183.4,38.8,183.5,38.2z"/>
	<path class="st12" d="M183.1,39.9V29.7c-0.1-0.4-0.2-0.8-0.4-1.2v12.7C182.9,40.7,183,40.3,183.1,39.9z"/>
	<path class="st13" d="M182.7,41.2V28.5c-0.1-0.3-0.2-0.7-0.4-1v14.7C182.5,41.9,182.6,41.5,182.7,41.2z"/>
	<path class="st14" d="M182.4,42.2V27.5c-0.1-0.3-0.3-0.6-0.4-0.9V43C182.1,42.7,182.2,42.5,182.4,42.2z"/>
	<path class="st15" d="M182,43V26.6c-0.1-0.3-0.3-0.5-0.4-0.8v18C181.7,43.6,181.8,43.3,182,43z"/>
	<path class="st16" d="M181.6,43.8v-18c-0.1-0.2-0.3-0.5-0.4-0.7v19.3C181.3,44.3,181.5,44,181.6,43.8z"/>
	<path class="st17" d="M181.2,44.5V25.2c-0.1-0.2-0.3-0.4-0.4-0.6v20.6C180.9,44.9,181.1,44.7,181.2,44.5z"/>
	<path class="st18" d="M180.8,45.1V24.5c-0.1-0.2-0.3-0.4-0.4-0.6v21.7C180.6,45.5,180.7,45.3,180.8,45.1z"/>
	<path class="st19" d="M180,46.2V23.5c0,0,0,0,0,0L180,46.2C180,46.2,180,46.2,180,46.2z"/>
	<path class="st19" d="M180.4,45.7V24c-0.1-0.2-0.2-0.3-0.4-0.5v22.7C180.2,46,180.3,45.9,180.4,45.7z"/>
	<path class="st68" d="M180,46.2V23.4c-0.1-0.2-0.3-0.3-0.4-0.5v23.8C179.8,46.5,179.9,46.4,180,46.2z"/>
	<path class="st69" d="M179.6,46.7V22.9c-0.1-0.2-0.3-0.3-0.4-0.5v24.7C179.4,47,179.5,46.9,179.6,46.7z"/>
	<path class="st70" d="M179.3,47.2V22.5c-0.1-0.1-0.3-0.3-0.4-0.4v25.6C179,47.5,179.1,47.3,179.3,47.2z"/>
	<path class="st71" d="M178.9,47.6V22c-0.1-0.1-0.3-0.3-0.4-0.4V48C178.6,47.9,178.7,47.7,178.9,47.6z"/>
	<path class="st72" d="M178.2,48.3c0.1-0.1,0.2-0.2,0.3-0.3V21.6c-0.1-0.1-0.3-0.3-0.4-0.4v12c0.1,0.5,0.1,1.1,0.1,1.6
		c0,0.5,0,1-0.1,1.5v11.8L178.2,48.3z"/>
	<path class="st73" d="M177.8,47.7l0.3,0.4V36.4c-0.1,0.7-0.2,1.4-0.4,2L177.8,47.7L177.8,47.7z"/>
	<path class="st73" d="M177.7,20.9v10.4c0.2,0.6,0.3,1.3,0.4,1.9v-12C178,21.1,177.8,21,177.7,20.9z"/>
	<path class="st74" d="M177.7,47.7v-9.3c-0.1,0.4-0.2,0.8-0.4,1.2v7.6L177.7,47.7z"/>
	<path class="st74" d="M177.3,20.5v9.6c0.2,0.4,0.3,0.8,0.4,1.2V20.9C177.6,20.8,177.5,20.6,177.3,20.5z"/>
	<path class="st75" d="M177,46.7l0.3,0.4v-7.6c-0.1,0.3-0.2,0.6-0.4,0.9L177,46.7L177,46.7z"/>
	<path class="st75" d="M176.9,20.2v9c0.1,0.3,0.3,0.6,0.4,0.9v-9.6C177.2,20.4,177.1,20.3,176.9,20.2z"/>
	<path class="st76" d="M176.5,19.9v8.6c0.1,0.2,0.3,0.5,0.4,0.7v-9C176.8,20.1,176.7,20,176.5,19.9z"/>
	<path class="st76" d="M176.9,46.7v-6.2c-0.1,0.3-0.2,0.5-0.4,0.8v4.9L176.9,46.7z"/>
	<path class="st77" d="M176.2,45.8l0.3,0.4v-4.9c-0.1,0.2-0.2,0.5-0.4,0.7v3.8L176.2,45.8z"/>
	<path class="st77" d="M176.4,19.8l-0.3,0.3v7.6c0.1,0.2,0.3,0.5,0.4,0.7v-8.6C176.5,19.9,176.5,19.8,176.4,19.8z"/>
	<path class="st78" d="M175.8,20.6v6.6c0.1,0.2,0.3,0.4,0.4,0.6v-7.6L175.8,20.6z"/>
	<path class="st78" d="M176.2,45.6v-3.8c-0.1,0.2-0.3,0.4-0.4,0.6v2.7L176.2,45.6z"/>
	<path class="st79" d="M175.5,44.8l0.3,0.4v-2.7c-0.1,0.2-0.2,0.4-0.4,0.5v1.6L175.5,44.8z"/>
	<path class="st79" d="M175.4,21.1v5.5c0.1,0.2,0.3,0.4,0.4,0.5v-6.6L175.4,21.1z"/>
	<path class="st80" d="M175,21.6v4.6c0.1,0.2,0.3,0.3,0.4,0.5v-5.5L175,21.6z"/>
	<path class="st80" d="M175.4,44.6V43c-0.1,0.2-0.3,0.3-0.4,0.5v0.7L175.4,44.6z"/>
	<path class="st81" d="M174.6,22.1v3.6c0.1,0.1,0.3,0.3,0.4,0.4v-4.6L174.6,22.1z"/>
	<path class="st81" d="M175,44.1v-0.7c-0.1,0.1-0.2,0.2-0.3,0.3l0,0L175,44.1z"/>
	<path class="st82" d="M174.2,22.6v2.7c0.1,0.1,0.3,0.3,0.4,0.4v-3.6L174.2,22.6z"/>
	<path class="st83" d="M173.8,23.1V25c0.1,0.1,0.3,0.2,0.4,0.4v-2.7L173.8,23.1z"/>
	<path class="st84" d="M173.5,23.6v1c0.1,0.1,0.3,0.2,0.4,0.3v-1.9L173.5,23.6z"/>
	<path class="st85" d="M173.1,24.1v0.2c0.1,0.1,0.3,0.2,0.4,0.3v-1L173.1,24.1z"/>
	<path class="st86" d="M173,24.3C173,24.3,173,24.3,173,24.3l0.1-0.1L173,24.3z"/>
	<path class="st87" d="M171.5,34.8c0-0.7-0.1-1.4-0.3-2.1v4.2C171.3,36.3,171.5,35.6,171.5,34.8z"/>
	<path class="st88" d="M171.1,36.9v-4.2c-0.1-0.3-0.2-0.7-0.4-1v6.2C170.9,37.6,171,37.3,171.1,36.9z"/>
	<path class="st89" d="M170.5,38.3c0.1-0.1,0.1-0.3,0.2-0.4v-6.2c-0.1-0.2-0.2-0.5-0.4-0.7v7.1L170.5,38.3z"/>
	<path class="st90" d="M170.2,37.9l0.2,0.2V31c-0.1-0.2-0.2-0.4-0.4-0.6v7.1L170.2,37.9z"/>
	<path class="st90" d="M167.2,33.9l0.8,1l0.8,1l0.8,1l0.5,0.7v-7.1c-0.3-0.4-0.6-0.8-1-1.1l-2.7,3.4l0.1,0.1L167.2,33.9z"/>
	<path class="st20" d="M122.5,35.6c0,2.7,0.3,5.4,0.8,8V27.5C122.7,30.1,122.5,32.8,122.5,35.6z"/>
	<path class="st21" d="M123.2,27.5v16.1c0.2,1.1,0.5,2.2,0.8,3.2V24.3C123.7,25.4,123.4,26.4,123.2,27.5z"/>
	<path class="st22" d="M124,24.3v22.5c0.2,0.8,0.5,1.7,0.8,2.5V21.8C124.5,22.7,124.2,23.5,124,24.3z"/>
	<path class="st23" d="M124.7,21.8v27.4c0.2,0.7,0.5,1.4,0.8,2.1V19.8C125.2,20.5,125,21.1,124.7,21.8z"/>
	<path class="st24" d="M125.5,19.8v31.6c0.2,0.6,0.5,1.2,0.8,1.8V18C126,18.6,125.7,19.2,125.5,19.8z"/>
	<path class="st25" d="M126.3,18v35.1c0.2,0.5,0.5,1,0.8,1.6V16.4C126.8,17,126.5,17.5,126.3,18z"/>
	<path class="st26" d="M127,16.4v38.2c0.2,0.5,0.5,1,0.8,1.5V15C127.5,15.5,127.3,16,127,16.4z"/>
	<path class="st27" d="M127.8,15v41.2c0.2,0.4,0.5,0.9,0.8,1.3V41.8c-0.3-2-0.5-4.1-0.5-6.2c0-2.1,0.2-4.2,0.5-6.2V13.7
		C128.3,14.1,128,14.5,127.8,15z"/>
	<path class="st28" d="M128.5,13.7v15.7c0.2-1.2,0.5-2.3,0.8-3.5V12.5C129,12.9,128.8,13.3,128.5,13.7z"/>
	<path class="st28" d="M129.3,58.7V45.2c-0.3-1.1-0.6-2.3-0.8-3.4v15.7C128.8,57.9,129,58.3,129.3,58.7z"/>
	<path class="st29" d="M130,59.8V47.7c-0.3-0.8-0.5-1.6-0.8-2.5v13.5C129.5,59,129.8,59.4,130,59.8z"/>
	<path class="st29" d="M129.3,12.5v13.4c0.2-0.8,0.5-1.6,0.8-2.4V11.3C129.8,11.7,129.5,12.1,129.3,12.5z"/>
	<path class="st30" d="M130.8,60.9V49.7c-0.3-0.7-0.5-1.3-0.8-2v12.1C130.3,60.2,130.5,60.5,130.8,60.9z"/>
	<path class="st30" d="M130,11.3v12.1c0.2-0.7,0.5-1.3,0.8-2V10.3C130.5,10.6,130.3,11,130,11.3z"/>
	<path class="st31" d="M130.8,10.3v11.2c0.2-0.6,0.5-1.1,0.8-1.7V9.3C131.3,9.6,131.1,9.9,130.8,10.3z"/>
	<path class="st31" d="M131.6,61.9V51.4c-0.3-0.6-0.5-1.1-0.8-1.7v11.2C131.1,61.2,131.3,61.5,131.6,61.9z"/>
	<path class="st32" d="M132.3,62.8v-9.9c-0.3-0.5-0.5-1-0.8-1.5v10.5C131.8,62.2,132.1,62.5,132.3,62.8z"/>
	<path class="st32" d="M131.6,9.3v10.5c0.2-0.5,0.5-1,0.8-1.5V8.3C132.1,8.7,131.8,9,131.6,9.3z"/>
	<path class="st33" d="M133.1,63.7v-9.4c-0.3-0.4-0.5-0.9-0.8-1.4v9.9C132.6,63.1,132.8,63.4,133.1,63.7z"/>
	<path class="st33" d="M132.3,8.3v9.9c0.2-0.5,0.5-0.9,0.8-1.4V7.5C132.8,7.8,132.6,8,132.3,8.3z"/>
	<path class="st34" d="M133.8,64.5v-9c-0.3-0.4-0.5-0.8-0.8-1.2v9.4C133.3,64,133.6,64.2,133.8,64.5z"/>
	<path class="st34" d="M133.1,7.5v9.4c0.2-0.4,0.5-0.8,0.8-1.2v-9C133.6,6.9,133.3,7.2,133.1,7.5z"/>
	<path class="st35" d="M134.6,65.3v-8.7c-0.3-0.4-0.5-0.8-0.8-1.1v9C134.1,64.8,134.3,65,134.6,65.3z"/>
	<path class="st35" d="M133.8,6.6v9c0.2-0.4,0.5-0.8,0.8-1.1V5.8C134.3,6.1,134.1,6.3,133.8,6.6z"/>
	<path class="st36" d="M135.3,66.1v-8.4c-0.3-0.3-0.5-0.7-0.8-1.1v8.7C134.8,65.6,135.1,65.8,135.3,66.1z"/>
	<path class="st36" d="M134.6,5.8v8.7c0.2-0.4,0.5-0.7,0.8-1.1V5.1C135.1,5.3,134.8,5.6,134.6,5.8z"/>
	<path class="st37" d="M136.1,66.8v-8.1c-0.3-0.3-0.5-0.6-0.8-1v8.4C135.6,66.3,135.9,66.5,136.1,66.8z"/>
	<path class="st37" d="M135.3,5.1v8.4c0.2-0.3,0.5-0.7,0.8-1V4.4C135.9,4.6,135.6,4.8,135.3,5.1z"/>
	<path class="st38" d="M136.1,4.4v8.1c0.2-0.3,0.5-0.6,0.8-0.9V3.7C136.6,3.9,136.4,4.1,136.1,4.4z"/>
	<path class="st38" d="M136.9,67.5v-7.9c-0.3-0.3-0.5-0.6-0.8-0.9v8.1C136.4,67,136.6,67.2,136.9,67.5z"/>
	<path class="st39" d="M136.9,3.7v7.9c0.3-0.3,0.5-0.6,0.8-0.9V3C137.4,3.2,137.1,3.4,136.9,3.7z"/>
	<path class="st39" d="M137.6,68.1v-7.7c-0.3-0.3-0.5-0.6-0.8-0.9v7.9C137.1,67.7,137.4,67.9,137.6,68.1z"/>
	<path class="st40" d="M137.6,3v7.7c0.2-0.3,0.5-0.5,0.8-0.8V2.4C138.1,2.6,137.9,2.8,137.6,3z"/>
	<path class="st40" d="M138.4,68.7v-7.5c-0.3-0.3-0.5-0.5-0.8-0.8v7.7C137.9,68.3,138.1,68.5,138.4,68.7z"/>
	<path class="st41" d="M138.4,2.4v7.5c0.2-0.3,0.5-0.5,0.8-0.8V1.8C138.9,2,138.6,2.2,138.4,2.4z"/>
	<path class="st41" d="M139.1,69.4V62c-0.3-0.3-0.5-0.5-0.8-0.8v7.5C138.6,69,138.9,69.2,139.1,69.4z"/>
	<path class="st42" d="M139.1,1.8v7.4c0.2-0.2,0.5-0.5,0.8-0.7V1.2C139.6,1.4,139.4,1.6,139.1,1.8z"/>
	<path class="st42" d="M139.9,69.9v-7.2c-0.3-0.2-0.5-0.5-0.8-0.7v7.3C139.4,69.6,139.6,69.7,139.9,69.9z"/>
	<path class="st43" d="M139.9,1.2v7.2c0.1-0.1,0.2-0.2,0.4-0.4l0.4,0.5V0.7C140.4,0.9,140.1,1,139.9,1.2z"/>
	<path class="st43" d="M140.6,70.5v-7c-0.3-0.2-0.5-0.4-0.8-0.7v7.2C140.1,70.1,140.4,70.3,140.6,70.5z"/>
	<path class="st44" d="M141.3,0.2c-0.2,0.1-0.4,0.3-0.6,0.4v7.9l0.8,1V0.4L141.3,0.2z"/>
	<path class="st44" d="M141.2,70.9l0.2,0v-6.8c-0.3-0.2-0.5-0.4-0.8-0.7v7C140.8,70.6,141,70.7,141.2,70.9z"/>
	<polygon class="st45" points="141.4,0.4 141.4,9.5 142.2,10.5 142.2,1.4 	"/>
	<path class="st45" d="M142.2,70.9v-6.2c-0.3-0.2-0.5-0.4-0.8-0.6v6.8L142.2,70.9z"/>
	<polygon class="st46" points="142.2,1.4 142.2,10.5 142.9,11.5 142.9,2.4 	"/>
	<path class="st46" d="M142.9,70.9v-5.6c-0.3-0.2-0.5-0.4-0.8-0.6v6.2L142.9,70.9z"/>
	<path class="st47" d="M143.7,70.9v-5.1c-0.3-0.2-0.5-0.4-0.8-0.6v5.6L143.7,70.9z"/>
	<polygon class="st47" points="142.9,2.4 142.9,11.5 143.7,12.5 143.7,3.4 	"/>
	<path class="st48" d="M144.4,70.9v-4.5c-0.3-0.2-0.5-0.3-0.8-0.5v5.1L144.4,70.9z"/>
	<polygon class="st48" points="143.7,3.4 143.7,12.5 144.4,13.5 144.4,4.4 	"/>
	<polygon class="st49" points="144.4,4.4 144.4,13.5 145.2,14.5 145.2,5.4 	"/>
	<path class="st49" d="M145.2,70.9v-4c-0.3-0.2-0.5-0.3-0.8-0.5v4.5L145.2,70.9z"/>
	<path class="st50" d="M146,70.9v-3.6c-0.3-0.2-0.5-0.3-0.8-0.5v4L146,70.9z"/>
	<polygon class="st50" points="145.2,5.4 145.2,14.5 146,15.4 146,6.3 	"/>
	<path class="st51" d="M146.7,70.9v-3.1c-0.3-0.1-0.5-0.3-0.8-0.4v3.6L146.7,70.9z"/>
	<polygon class="st51" points="146,6.3 146,15.4 146.7,16.4 146.7,7.3 	"/>
	<polygon class="st52" points="146.7,7.3 146.7,16.4 147.5,17.4 147.5,8.3 	"/>
	<path class="st52" d="M147.5,70.9v-2.7c-0.3-0.1-0.5-0.3-0.8-0.4v3.1L147.5,70.9z"/>
	<polygon class="st53" points="147.5,8.3 147.5,17.4 148.2,18.4 148.2,9.3 	"/>
	<path class="st53" d="M148.2,70.9v-2.3c-0.3-0.1-0.5-0.3-0.8-0.4v2.7L148.2,70.9z"/>
	<path class="st54" d="M149,70.9v-1.9c-0.3-0.1-0.5-0.2-0.8-0.4v2.3L149,70.9z"/>
	<polygon class="st54" points="148.2,9.3 148.2,18.4 149,19.4 149,10.3 	"/>
	<polygon class="st55" points="149,10.3 149,19.4 149.7,20.4 149.7,11.3 	"/>
	<path class="st55" d="M149.7,70.9v-1.6c-0.3-0.1-0.5-0.2-0.8-0.4v1.9L149.7,70.9z"/>
	<path class="st56" d="M150.5,70.9v-1.2c-0.3-0.1-0.5-0.2-0.8-0.3v1.6L150.5,70.9z"/>
	<polygon class="st56" points="149.7,11.3 149.7,20.4 150.5,21.3 150.5,12.3 	"/>
	<polygon class="st57" points="150.5,12.3 150.5,21.3 151.3,22.3 151.3,13.2 	"/>
	<path class="st57" d="M151.3,70.9V70c-0.3-0.1-0.5-0.2-0.8-0.3v1.2L151.3,70.9z"/>
	<polygon class="st58" points="151.3,13.2 151.3,22.3 152,23.3 152,14.2 	"/>
	<path class="st58" d="M152,70.9v-0.6c-0.3-0.1-0.5-0.2-0.8-0.3v0.9L152,70.9z"/>
	<polygon class="st59" points="152,14.2 152,23.3 152.8,24.3 152.8,15.2 	"/>
	<path class="st59" d="M152.8,70.9v-0.3c-0.3-0.1-0.5-0.2-0.8-0.3v0.6L152.8,70.9z"/>
	<path class="st60" d="M153.5,70.9L153.5,70.9c-0.3-0.2-0.5-0.3-0.8-0.4v0.3L153.5,70.9z"/>
	<polygon class="st60" points="152.8,15.2 152.8,24.3 153.5,25.3 153.5,16.2 	"/>
	<path class="st61" d="M153.8,70.9c-0.1,0-0.2-0.1-0.3-0.1v0.1L153.8,70.9z"/>
	<polygon class="st61" points="153.5,16.2 153.5,25.3 154.3,26.3 154.3,17.2 	"/>
	<polygon class="st62" points="154.3,17.2 154.3,26.3 155,27.2 155,18.2 	"/>
	<polygon class="st63" points="155,18.2 155,27.2 155.8,28.2 155.8,19.1 	"/>
	<polygon class="st64" points="155.8,19.1 155.8,28.2 156.6,29.2 156.6,20.1 	"/>
	<polygon class="st65" points="156.6,20.1 156.6,29.2 157.3,30.2 157.3,21.1 	"/>
	<polygon class="st66" points="157.3,21.1 157.3,30.2 158.1,31.2 158.1,22.1 	"/>
	<polygon class="st67" points="158.1,22.1 158.1,31.2 158.8,32.2 158.8,23.1 	"/>
	<polygon class="st1" points="158.8,23.1 158.8,32.2 159.6,33.2 159.6,24.1 	"/>
	<polygon class="st2" points="159.6,24.1 159.6,33.2 160.3,34.1 160.3,25.1 	"/>
	<polygon class="st3" points="160.3,25.1 160.3,34.1 161.1,35.1 161.1,26 	"/>
	<polygon class="st4" points="161.1,26 161.1,35.1 161.9,36.1 161.9,27 	"/>
	<polygon class="st5" points="161.9,27 161.9,36.1 162.6,37.1 162.6,28 	"/>
	<polygon class="st6" points="162.6,28 162.6,37.1 163.4,38.1 163.4,29 	"/>
	<polygon class="st7" points="163.4,29 163.4,38.1 164.1,39.1 164.1,30 	"/>
	<polygon class="st8" points="164.1,30 164.1,39.1 164.9,40 164.9,31 	"/>
	<polygon class="st9" points="164.9,31 164.9,40 165.6,41 165.6,32 	"/>
	<polygon class="st10" points="166.4,33.4 166.1,33 166.3,32.8 165.6,32 165.6,41 166.4,42 	"/>
	<polygon class="st10" points="166.4,33.4 166.4,32.9 166.3,32.8 166.1,33 	"/>
	<polygon class="st11" points="167.2,34.4 166.4,33.4 166.4,42 167.2,43 	"/>
	<polygon class="st11" points="166.4,32.9 166.4,33.4 167.2,34.4 167.2,33.9 	"/>
	<polygon class="st12" points="167.9,35.3 167.2,34.4 167.2,43 167.9,44 	"/>
	<polygon class="st12" points="167.2,33.9 167.2,34.4 167.9,35.3 167.9,34.9 	"/>
	<polygon class="st13" points="168.7,36.3 167.9,35.3 167.9,44 168.7,45 	"/>
	<polygon class="st13" points="167.9,34.9 167.9,35.3 168.7,36.3 168.7,35.9 	"/>
	<polygon class="st14" points="169.4,37.3 168.7,36.3 168.7,45 169.4,45.9 	"/>
	<polygon class="st14" points="168.7,35.9 168.7,36.3 169.4,37.3 169.4,36.9 	"/>
	<polygon class="st15" points="170.2,38.3 170,38 169.4,37.3 169.4,45.9 170.2,46.9 	"/>
	<polygon class="st15" points="170,37.6 170,38 170.2,38.3 170.2,37.9 	"/>
	<polygon class="st15" points="169.4,36.9 169.4,37.3 170,38 170,37.6 	"/>
	<path class="st16" d="M170.5,38.3c0,0.1-0.1,0.2-0.1,0.3l0-0.1l-0.2-0.2v8.6l0.8,1v-9.1L170.5,38.3z"/>
	<path class="st16" d="M170.4,38.5L170.4,38.5c0.1,0,0.1-0.1,0.2-0.2l-0.2-0.2V38.5z"/>
	<polygon class="st16" points="170.2,37.9 170.2,38.3 170.4,38.5 170.4,38.1 	"/>
	<polygon class="st17" points="170.9,38.9 170.9,47.9 171.7,48.9 171.7,39.8 	"/>
	<polygon class="st18" points="171.7,39.8 171.7,48.9 172.5,49.9 172.5,40.8 	"/>
	<polygon class="st19" points="173.2,41.8 172.5,40.8 172.5,49.9 173.2,50.9 	"/>
	<polygon class="st68" points="174,42.8 173.2,41.8 173.2,50.9 174,51.8 	"/>
	<path class="st69" d="M174.7,44.2l-0.1-0.1l-0.1-0.1c0,0,0,0,0.1-0.1c0,0,0.1-0.1,0.1-0.1l-0.8-1v9l0.8,1V44.2z"/>
	<path class="st69" d="M174.6,44l0.1,0.1v-0.4l0,0c0,0-0.1,0.1-0.1,0.1V44z"/>
	<path class="st69" d="M174.6,44L174.6,44L174.6,44C174.6,43.9,174.6,44,174.6,44z"/>
	<polygon class="st70" points="175.5,45.2 175.4,45.1 175,44.6 174.7,44.2 174.7,52.8 175.5,53.8 	"/>
	<polygon class="st70" points="175.4,44.6 175.4,45.1 175.5,45.2 175.5,44.8 	"/>
	<polygon class="st70" points="175,44.1 175,44.6 175.4,45.1 175.4,44.6 	"/>
	<polygon class="st70" points="174.7,43.8 174.7,44.2 175,44.6 175,44.1 	"/>
	<polygon class="st71" points="176.2,46.2 176.2,46.1 175.8,45.6 175.5,45.2 175.5,53.8 176.2,54.8 	"/>
	<polygon class="st71" points="176.2,45.6 176.2,46.1 176.2,46.2 176.2,45.8 	"/>
	<polygon class="st71" points="175.8,45.1 175.8,45.6 176.2,46.1 176.2,45.6 	"/>
	<polygon class="st71" points="175.5,44.8 175.5,45.2 175.8,45.6 175.8,45.1 	"/>
	<polygon class="st72" points="177,47.2 176.9,47.1 176.5,46.6 176.2,46.2 176.2,54.8 177,55.8 	"/>
	<polygon class="st72" points="176.9,46.7 176.9,47.1 177,47.2 177,46.7 	"/>
	<polygon class="st72" points="176.5,46.2 176.5,46.6 176.9,47.1 176.9,46.7 	"/>
	<polygon class="st72" points="176.2,45.8 176.2,46.2 176.5,46.6 176.5,46.2 	"/>
	<polygon class="st73" points="177.8,48.1 177.7,48.1 177.3,47.6 177,47.2 177,55.8 177.8,56.8 	"/>
	<polygon class="st73" points="177.7,47.7 177.7,48.1 177.8,48.1 177.8,47.7 	"/>
	<polygon class="st73" points="177.3,47.2 177.3,47.6 177.7,48.1 177.7,47.7 	"/>
	<polygon class="st73" points="177,46.7 177,47.2 177.3,47.6 177.3,47.2 	"/>
	<path class="st74" d="M178.2,48.3c0,0-0.1,0.1-0.1,0.1c0,0,0,0-0.1,0.1l-0.3-0.4v8.6l0.8,1v-9L178.2,48.3z"/>
	<path class="st74" d="M178.1,48.4c0,0,0.1-0.1,0.1-0.1l-0.1-0.1V48.4z"/>
	<path class="st74" d="M177.8,47.7v0.4l0.3,0.4c0,0,0,0,0.1-0.1v-0.3L177.8,47.7z"/>
	<polygon class="st75" points="178.5,48.7 178.5,57.7 179.3,58.7 179.3,49.7 	"/>
	<polygon class="st76" points="179.3,49.7 179.3,58.7 180,59.7 180,50.7 	"/>
	<polygon class="st77" points="180.8,51.7 180,50.7 180,59.7 180.8,60.7 	"/>
	<polygon class="st78" points="181.5,52.7 180.8,51.7 180.8,60.7 181.5,61.7 	"/>
	<path class="st79" d="M182.3,54l-0.3-0.4l0,0c0,0,0,0,0,0c0,0,0.1-0.1,0.1-0.1l-0.6-0.7v9l0.8,1V54z"/>
	<path class="st79" d="M182,53.6l0.3,0.4v-0.4l-0.2-0.3C182.1,53.4,182,53.5,182,53.6L182,53.6z"/>
	<path class="st79" d="M181.9,53.6L181.9,53.6L181.9,53.6C182,53.5,181.9,53.5,181.9,53.6z"/>
	<polygon class="st80" points="183.1,55 182.7,54.6 182.4,54.1 182.3,54 182.3,62.7 183.1,63.7 	"/>
	<polygon class="st80" points="182.7,54.2 182.7,54.6 183.1,55 183.1,54.6 	"/>
	<polygon class="st80" points="182.4,53.7 182.4,54.1 182.7,54.6 182.7,54.2 	"/>
	<polygon class="st80" points="182.3,53.6 182.3,54 182.4,54.1 182.4,53.7 	"/>
	<polygon class="st81" points="183.8,56 183.5,55.6 183.1,55.1 183.1,55 183.1,63.7 183.8,64.6 	"/>
	<polygon class="st81" points="183.5,55.2 183.5,55.6 183.8,56 183.8,55.6 	"/>
	<polygon class="st81" points="183.1,54.7 183.1,55.1 183.5,55.6 183.5,55.2 	"/>
	<polygon class="st81" points="183.1,54.6 183.1,55 183.1,55.1 183.1,54.7 	"/>
	<polygon class="st82" points="184.6,57 184.3,56.6 183.9,56.1 183.8,56 183.8,64.6 184.6,65.6 	"/>
	<polygon class="st82" points="184.3,56.2 184.3,56.6 184.6,57 184.6,56.6 	"/>
	<polygon class="st82" points="183.9,55.7 183.9,56.1 184.3,56.6 184.3,56.2 	"/>
	<polygon class="st82" points="183.8,55.6 183.8,56 183.9,56.1 183.9,55.7 	"/>
	<polygon class="st83" points="185.3,58 185.1,57.6 184.7,57.1 184.6,57 184.6,65.6 185.3,66.6 	"/>
	<polygon class="st83" points="185.1,57.2 185.1,57.6 185.3,58 185.3,57.6 	"/>
	<polygon class="st83" points="184.7,56.7 184.7,57.1 185.1,57.6 185.1,57.2 	"/>
	<polygon class="st83" points="184.6,56.6 184.6,57 184.7,57.1 184.7,56.7 	"/>
	<path class="st84" d="M185.6,57.9c0,0-0.1,0.1-0.1,0.1c0,0,0,0-0.1,0.1l0-0.1v8.6l0.8,1v-9L185.6,57.9z"/>
	<path class="st84" d="M185.4,58c0,0,0.1-0.1,0.1-0.1l-0.1-0.1V58z"/>
	<path class="st84" d="M185.3,57.6V58l0,0.1c0,0,0,0,0.1-0.1v-0.2L185.3,57.6z"/>
	<polygon class="st85" points="186.1,58.6 186.1,67.6 186.8,68.6 186.8,59.6 	"/>
	<polygon class="st86" points="187.6,60.5 186.8,59.6 186.8,68.6 187.6,69.6 	"/>
	<polygon class="st91" points="188.4,61.5 187.6,60.5 187.6,69.6 188.4,70.5 	"/>
	<polygon class="st92" points="189.1,62.5 188.4,61.5 188.4,70.5 188.6,70.9 189.1,70.5 	"/>
	<path class="st93" d="M189.9,63.9l-0.2-0.2l-0.4-0.5l0,0c0,0,0,0,0,0c0,0,0.1-0.1,0.1-0.1l-0.3-0.4v8l0.8-0.6V63.9z"/>
	<polygon class="st93" points="189.7,63.3 189.7,63.7 189.9,63.9 189.9,63.5 	"/>
	<path class="st93" d="M189.3,63.2l0.4,0.5v-0.4l-0.2-0.3C189.4,63,189.4,63,189.3,63.2L189.3,63.2z"/>
	<path class="st93" d="M189.3,63.1L189.3,63.1L189.3,63.1C189.3,63.1,189.3,63.1,189.3,63.1z"/>
	<polygon class="st87" points="190.6,64.9 190.5,64.7 190.1,64.2 189.9,63.9 189.9,69.9 190.6,69.2 	"/>
	<polygon class="st87" points="190.5,64.3 190.5,64.7 190.6,64.9 190.6,64.5 	"/>
	<polygon class="st87" points="190.1,63.8 190.1,64.2 190.5,64.7 190.5,64.3 	"/>
	<polygon class="st87" points="189.9,63.5 189.9,63.9 190.1,64.2 190.1,63.8 	"/>
	<polygon class="st88" points="191.4,65.9 191.2,65.7 190.9,65.2 190.6,64.9 190.6,69.2 191.4,68.6 	"/>
	<polygon class="st88" points="191.2,65.3 191.2,65.7 191.4,65.9 191.4,65.5 	"/>
	<polygon class="st88" points="190.9,64.8 190.9,65.2 191.2,65.7 191.2,65.3 	"/>
	<polygon class="st88" points="190.6,64.5 190.6,64.9 190.9,65.2 190.9,64.8 	"/>
	<polygon class="st89" points="192.1,66.8 192,66.7 191.6,66.2 191.4,65.9 191.4,68.6 192.1,68 	"/>
	<polygon class="st89" points="192,66.3 192,66.7 192.1,66.8 192.1,66.4 	"/>
	<polygon class="st89" points="191.6,65.8 191.6,66.2 192,66.7 192,66.3 	"/>
	<polygon class="st89" points="191.4,65.5 191.4,65.9 191.6,66.2 191.6,65.8 	"/>
	<polygon class="st90" points="192.1,66.8 192.1,68 192.7,67.6 192.4,67.2 	"/>
	<path class="st90" d="M192.8,67.5l0.1-0.1l0,0C192.9,67.5,192.8,67.5,192.8,67.5C192.8,67.5,192.8,67.5,192.8,67.5z"/>
	<path class="st90" d="M192.8,67.5c0,0,0.1-0.1,0.1-0.1l-0.1-0.1V67.5z"/>
	<path class="st90" d="M192.8,67.3l-0.4-0.5v0.4l0.3,0.4l0,0c0,0,0,0,0,0V67.3z"/>
	<polygon class="st90" points="192.1,66.8 192.4,67.2 192.4,66.8 192.1,66.4 	"/>
	<polygon class="st0" points="99.4,102.1 94.4,94.7 93,94.7 93,104.3 94.3,104.3 94.3,96.8 99.4,104.3 100.8,104.3 100.8,94.7 
		99.4,94.7 	"/>
	<polygon class="st0" points="111.1,104.3 112.5,104.3 112.5,100 116.9,100 116.9,98.8 112.5,98.8 112.5,95.9 117.3,95.9 
		117.3,94.7 111.1,94.7 	"/>
	<path class="st0" d="M126.3,99.5c0,3.2,1.9,5,4.9,5c1,0,2-0.2,2.9-0.5v-1.3c-1.4,0.6-2.1,0.7-2.9,0.7c-1.9,0-3.6-1.2-3.6-3.8
		c0-2.6,1.5-3.8,3.6-3.8c0.8,0,1.5,0.1,2.9,0.7V95c-1-0.4-1.9-0.5-2.9-0.5C128.3,94.5,126.3,96.3,126.3,99.5z"/>
	<polygon class="st0" points="156.8,95.9 159.6,95.9 159.6,104.3 161,104.3 161,95.9 163.9,95.9 163.9,94.7 156.8,94.7 	"/>
	<path class="st0" d="M177.6,94.5c-2.9,0-4.7,2-4.7,5c0,3,1.8,5,4.7,5s4.7-2,4.7-5C182.3,96.5,180.5,94.5,177.6,94.5z M177.6,103.4
		c-2.2,0-3.3-1.6-3.3-3.8c0-2.3,1.1-3.8,3.3-3.8c2.2,0,3.4,1.6,3.4,3.8C180.9,101.8,179.8,103.4,177.6,103.4z"/>
	<path class="st0" d="M198.3,100.7c0,1.7-0.9,2.6-2.4,2.6c-1.6,0-2.4-0.9-2.4-2.6v-6h-1.3v6c0,2.3,1.3,3.7,3.8,3.7
		c2.5,0,3.7-1.4,3.7-3.7v-6h-1.3V100.7z"/>
	<path class="st0" d="M209.5,99.5c0,3.2,1.9,5,4.9,5c1,0,2-0.2,2.9-0.5v-1.3c-1.4,0.6-2.1,0.7-2.9,0.7c-1.9,0-3.6-1.2-3.6-3.8
		c0-2.6,1.5-3.8,3.6-3.8c0.8,0,1.5,0.1,2.9,0.7V95c-1-0.4-1.9-0.5-2.9-0.5C211.4,94.5,209.5,96.3,209.5,99.5z"/>
	<polygon class="st0" points="233.6,94.7 233.6,98.8 228.7,98.8 228.7,94.7 227.4,94.7 227.4,104.3 228.7,104.3 228.7,100 
		233.6,100 233.6,104.3 234.9,104.3 234.9,94.7 	"/>
</g>
</svg>
